<svg id="Grupo_40" data-name="Grupo 40" xmlns="http://www.w3.org/2000/svg" width="1249.982" height="1537.409" viewBox="0 0 1249.982 1537.409">
  <g id="Grupo_39" data-name="Grupo 39">
    <g id="Grupo_38" data-name="Grupo 38">
      <g id="Grupo_3" data-name="Grupo 3" transform="translate(433.994 1223.428)">
        <path id="Trazado_1" data-name="Trazado 1" d="M720.485,1540.232l-35.057-5.424L672.5,1562.659l35.073,5.426c.59,6.4,3.467,12.737,8.614,18.583l-25.667,14.819,35.313,20.388,25.668-14.819a129.178,129.178,0,0,0,32.186,4.973l9.4,20.25,48.239-7.462-9.394-20.241a88.227,88.227,0,0,0,13.011-6.094,64.705,64.705,0,0,0,10.557-7.512l35.057,5.424,12.926-27.851-35.073-5.426c-.59-6.4-3.467-12.738-8.614-18.583l25.668-14.819-35.314-20.388-25.668,14.819a129.181,129.181,0,0,0-32.185-4.973l-9.4-20.25-48.239,7.462,9.394,20.241a88.235,88.235,0,0,0-13.011,6.094A64.7,64.7,0,0,0,720.485,1540.232Zm38.889,8.846c15.805-9.124,41.43-9.124,57.235,0s15.805,23.92,0,33.045-41.43,9.125-57.235,0S743.57,1558.2,759.375,1549.078Z" transform="translate(-672.502 -1498.923)" fill="#073669" opacity="0.44"/>
        <g id="Grupo_2" data-name="Grupo 2" transform="translate(0 7.654)">
          <path id="Trazado_2" data-name="Trazado 2" d="M747.075,1574.516c-11.084-9.115-9.582-21.777,4.528-29.924,15.805-9.125,41.43-9.124,57.235,0,12.6,7.276,15.145,18.153,7.65,26.891a29.25,29.25,0,0,0-7.65-6.155c-15.805-9.125-41.43-9.125-57.235,0a29.251,29.251,0,0,0-7.65,6.155A25.357,25.357,0,0,0,747.075,1574.516Z" transform="translate(-664.73 -1502.09)" fill="#073669"/>
          <path id="Trazado_3" data-name="Trazado 3" d="M828.428,1591.251a64.705,64.705,0,0,0,10.557-7.512l35.057,5.424,12.837-27.66.089.015-.089.191.089.014-.089.192.089.013-.089.192.089.013-.089.191.089.014-.089.192.089.014-.089.192.089.013-.089.192.089.013-.089.192.089.013-.089.192.089.013-.089.192.089.013-.089.192.089.013-.089.192.089.013-.089.192.089.013-.089.192.089.013-.089.192.089.014-.089.192.089.013-.089.192.089.013-.089.192.089.013-.089.192.089.013-.089.192.089.013-.089.192.089.014-.089.192.089.013-.089.192.089.015-.089.191.089.013-.089.192.089.014-.089.191.089.015-.089.191.089.015-.089.192.089.013-.089.191.089.015-.089.191.089.015-.089.192.089.013-.089.191.089.015-.089.192.089.013-.089.192.089.013-.089.192.089.013-.089.192.089.013-.089.192.089.013-.089.192.089.014-.089.192.089.013-.089.192.089.013-.089.192.089.013-.089.192.089.013-.089.192.089.013-.089.192.089.014-.089.192.089.013-.089.192.089.014-.089.191.089.013-.089.192.089.013-.089.192.089.015-.089.191.089.015-.089.191.089.015-.089.191.089.013-.089.192.089.015-.089.191.089.015-.089.191.089.015-.089.191.089.015-.089.192.089.013-.089.191.089.014-.089.192.089.013-.089.191.089.015-.089.192.089.013-.089.192.089.013-.089.192.089.013-.089.192.089.013-.089.192.089.014-.089.192.089.013-.089.192.089.013-.089.192.089.013-.089.192.089.013-.089.192.089.013-.089.192.089.014-.089.192.089.014-.089.191.089.013-.089.192.089.013-.089.192.089.013-.089.192.089.014-.089.191.089.015-.089.191.089.013-.089.192.089.014-.089.191.089.015-.089.191.089.014-.089.191.089.015-.089.191.089.015-.089.191.089.014-.089.192.089.013-.089.191.089.015-.089.192.089.013-.089.192.089.013-.089.192.089.014-.089.192.089.013-.089.192.089.013-.089.192.089.013-.089.192.089.013-.089.192.089.013-.089.192.089.013-.089.192.089.013-.089.192.089.013-.089.192.089.014-.089.192.089.013-.089.192.089.014-12.926,27.85-35.057-5.424a64.558,64.558,0,0,1-10.557,7.512c-1.61.93-3.285,1.8-4.994,2.632l1.378,2.969-9.394-20.241A88.227,88.227,0,0,0,828.428,1591.251Z" transform="translate(-655.987 -1499.345)" fill="#073669"/>
          <path id="Trazado_4" data-name="Trazado 4" d="M723.969,1611.251l25.668-14.819a129.177,129.177,0,0,0,32.185,4.973l9.4,20.25,48.239-7.462-.088.013.088.192-.088.014.088.192-.088.013.088.192-.088.013.088.192-.088.013.088.192-.088.013.088.192-.088.013.088.192-.088.014.088.192-.088.014.088.191-.088.013.088.192-.088.013.088.192-.088.015.088.191-.088.013.088.192-.088.015.088.191-.088.014.088.191-.088.014.088.191-.088.015.088.191-.088.015.088.191-.088.014.088.192-.088.013.088.191-.088.014.088.192-.088.013.088.192-.088.014.088.192-.088.013.088.192-.088.013.088.192-.088.013.088.192-.088.013.088.192-.088.013.088.192-.088.014.088.192-.088.013.088.192-.088.013.088.192-.088.013.088.192-.088.013.088.192-.088.013.088.192-.088.015.088.191-.088.013.088.192-.088.013.088.192-.088.015.088.191-.088.014.088.191-.088.015.088.191-.088.014.088.192-.088.014.088.191-.088.014.088.191-.088.015.088.191-.088.015.088.192-.088.013.088.191-.088.015.088.192-.088.013.088.191-.088.014.088.192-.088.013.088.192-.088.013.088.192-.088.013.088.192-.088.013.088.192-.088.013.088.192-.088.013.088.192-.088.014.088.192-.088.013.088.192-.088.013.088.192-.088.013.088.192-.088.013.088.192-.088.015.088.191-.088.014.088.192-.088.013.088.192-.088.013.088.192-.088.015.088.191-.088.014.088.191-.088.013.088.192-.088.015.088.191-.088.014.088.191-.088.015.088.191-.088.015.088.191-.088.014.088.191-.088.015.088.192-.088.013.088.191-.088.014.088.192-.088.013.088.192-.088.013.088.192-.088.013.088.192-.088.013.088.192-.088.014.088.192-.088.013.088.192-.088.013.088.192-.088.013.088.192-.088.013.088.192-.088.013.088.192-.088.013.088.192-.088.013.088.192-.088.013.088.192-.088.014.088.192-.088.013.088.192-.088.013.088.192-.088.015.088.191-.088.013.088.192-.088.015.088.191-.088.015.088.191-.088.014.088.191-.088.015.088.191-.088.015.088.191-.088.014.088.191-.088.015.088.191-.088.015.088.192-48.239,7.462-9.4-20.25a129.183,129.183,0,0,1-32.185-4.973l-25.668,14.819L688.656,1611.6l.177-.1-.177-.1.177-.1-.177-.1.177-.1-.177-.1.177-.1-.177-.1.177-.1-.177-.1.177-.1-.177-.1.177-.1-.177-.1.177-.1-.177-.1.177-.1-.177-.1.177-.1-.177-.1.177-.1-.177-.1.177-.1-.177-.1.177-.1-.177-.1.177-.1-.177-.1.177-.1-.177-.1.177-.1-.177-.1.177-.1-.177-.1.177-.1-.177-.1.177-.1-.177-.1.177-.1-.177-.1.177-.1-.177-.1.177-.1-.177-.1.177-.1-.177-.1.177-.1-.177-.1.177-.1-.177-.1.177-.1-.177-.1.177-.1-.177-.1.177-.1-.177-.1.177-.1-.177-.1.177-.1-.177-.1.177-.1-.177-.1.177-.1-.177-.1.177-.1-.177-.1.177-.1-.177-.1.177-.1-.177-.1.177-.1-.177-.1.177-.1-.177-.1.177-.1-.177-.1.177-.1-.177-.1.177-.1-.177-.1.177-.1-.177-.1.177-.1-.177-.1.177-.1-.177-.1.177-.1-.177-.1.177-.1-.177-.1.177-.1-.177-.1.177-.1-.177-.1.177-.1-.177-.1.177-.1-.177-.1.177-.1-.177-.1.177-.1-.177-.1.177-.1-.177-.1.177-.1-.177-.1.177-.1-.177-.1.177-.1-.177-.1.177-.1-.177-.1.177-.1-.177-.1.177-.1-.177-.1.177-.1-.177-.1.177-.1-.177-.1.177-.1-.177-.1.177-.1-.177-.1.177-.1-.177-.1.177-.1-.177-.1.177-.1-.177-.1.177-.1-.177-.1.177-.1-.177-.1.177-.1-.177-.1.177-.1-.177-.1.177-.1-.177-.1.177-.1-.177-.1.177-.1-.177-.1.177-.1-.177-.1.177-.1-.177-.1.177-.1-.177-.1.177-.1-.177-.1.177-.1-.177-.1.177-.1-.177-.1.177-.1-.177-.1.177-.1-.177-.1.177-.1-.177-.1.177-.1-.177-.1.177-.1-.177-.1.177-.1-.177-.1.177-.1-.177-.1.177-.1-.177-.1.177-.1-.177-.1.177-.1-.177-.1.177-.1-.177-.1.177-.1-.177-.1.177-.1-.177-.1.177-.1-.177-.1.177-.1-.177-.1.177-.1-.177-.1.177-.1-.177-.1.177-.1-.177-.1.177-.1-.177-.1.177-.1-.177-.1.177-.1-.177-.1.177-.1-.177-.1.177-.1-.177-.1Z" transform="translate(-670.635 -1495.953)" fill="#073669"/>
          <path id="Trazado_5" data-name="Trazado 5" d="M672.591,1556.071l-.089-.014,35.073,5.426c.59,6.4,3.467,12.737,8.614,18.583l-8.238,4.757c-.164-.867-.3-1.735-.376-2.6l-35.073-5.426.089-.192-.089-.013.089-.192-.089-.013.089-.192-.089-.013.089-.192-.089-.013.089-.192-.089-.014.089-.192-.089-.013.089-.192-.089-.013.089-.192-.089-.013.089-.192-.089-.013.089-.192-.089-.013.089-.192-.089-.014.089-.192-.089-.013.089-.192-.089-.013.089-.192-.089-.015.089-.191-.089-.013.089-.192-.089-.013.089-.192-.089-.014.089-.192-.089-.014.089-.191-.089-.015.089-.191-.089-.013.089-.192-.089-.015.089-.191-.089-.015.089-.191-.089-.015.089-.192-.089-.013.089-.191-.089-.015.089-.191-.089-.015.089-.192-.089-.013.089-.191-.089-.015.089-.192-.089-.013.089-.192-.089-.013.089-.192-.089-.013.089-.192-.089-.013.089-.192-.089-.013.089-.192-.089-.013.089-.192-.089-.013.089-.192-.089-.013.089-.192-.089-.013.089-.192-.089-.013.089-.192-.089-.013.089-.192-.089-.013.089-.192-.089-.013.089-.192-.089-.014.089-.191-.089-.013.089-.192-.089-.015.089-.191-.089-.014.089-.191-.089-.013.089-.192-.089-.015.089-.191-.089-.014.089-.191-.089-.015.089-.191-.089-.015.089-.191-.089-.014.089-.191-.089-.015.089-.192-.089-.013.089-.191-.089-.015.089-.192-.089-.014.089-.192-.089-.013.089-.192-.089-.013.089-.192-.089-.013.089-.192-.089-.013.089-.192-.089-.013.089-.192-.089-.014.089-.192-.089-.013.089-.192-.089-.013.089-.192-.089-.013.089-.192-.089-.013.089-.192-.089-.013.089-.192-.089-.013.089-.192-.089-.013.089-.192-.089-.013.089-.192-.089-.014.089-.192-.089-.015.089-.191-.089-.014.089-.191-.089-.015.089-.191-.089-.013.089-.192-.089-.014.089-.191-.089-.015.089-.191-.089-.015.089-.191-.089-.014.089-.192-.089-.013.089-.191-.089-.015.089-.192-.089-.013.089-.191-.089-.015.089-.191-.089-.015.089-.192-.089-.013.089-.192-.089-.013.089-.192-.089-.013.089-.192-.089-.013.089-.192-.089-.014.089-.192-.089-.013.089-.192-.089-.013.089-.192-.089-.013.089-.192-.089-.013.089-.192-.089-.013.089-.192-.089-.014.089-.192-.089-.013.089-.192-.089-.013.089-.192-.089-.013.089-.192-.089-.013.089-.192-.089-.015.089-.191-.089-.013Z" transform="translate(-672.502 -1499.975)" fill="#073669"/>
          <path id="Trazado_6" data-name="Trazado 6" d="M729.6,1529.3l-1.378-2.969.089-.013-.089-.192.089-.014-.089-.191.089-.013-.089-.192.089-.013-.089-.192.089-.013-.089-.192.089-.015-.089-.191.089-.014-.089-.191.089-.013-.089-.192.089-.015-.089-.191.089-.014-.089-.191.089-.015-.089-.191.089-.015-.089-.191.089-.014-.089-.191.089-.014-.089-.192.089-.013-.089-.191.089-.015-.089-.192.089-.013-.089-.192.089-.014-.089-.192.089-.013-.089-.192.089-.013-.089-.192.089-.013-.089-.192.089-.013-.089-.192.089-.013-.089-.192.089-.013-.089-.192.089-.013-.089-.192.089-.013-.089-.192.089-.014-.089-.192.089-.013-.089-.192.089-.013-.089-.192.089-.015-.089-.191.089-.013-.089-.192.089-.014-.089-.191.089-.015-.089-.191.089-.015-.089-.191.089-.014-.089-.191.089-.015-.089-.191.089-.014-.089-.191.089-.014-.089-.191.089-.015-.089-.191.089-.014-.089-.192.089-.013-.089-.191.089-.015-.089-.192.089-.013-.089-.192.089-.013-.089-.192.089-.014-.089-.192.089-.013-.089-.192.089-.013-.089-.192.089-.013-.089-.192.089-.013-.089-.192.089-.013-.089-.192.089-.014-.089-.192.089-.013-.089-.192.089-.013-.089-.192.089-.013-.089-.192.089-.013-.089-.192.089-.013-.089-.192.089-.013-.089-.192.089-.013-.089-.192.089-.015-.089-.191.089-.015-.089-.191.089-.015-.089-.191.089-.013-.089-.192.089-.015-.089-.191.089-.014-.089-.191.089-.014-.089-.191.089-.015-.089-.192.089-.013-.089-.191.089-.014-.089-.192.089-.013-.089-.191.089-.014-.089-.192.089-.013-.089-.192.089-.014-.089-.192.089-.013-.089-.192.089-.013-.089-.192.089-.013-.089-.192.089-.013-.089-.192.089-.013-.089-.192.089-.014-.089-.192.089-.013-.089-.192.089-.013-.089-.192.089-.013-.089-.192.089-.013-.089-.192.089-.013-.089-.192.089-.014-.089-.192.089-.013-.089-.192.089-.013-.089-.192.089-.015-.089-.191.089-.013-.089-.192.089-.015-.089-.191.089-.015-.089-.191.089-.014-.089-.191.089-.015-.089-.191.089-.015-.089-.191.089-.015-.089-.191.089-.015-.089-.191.089-.015-.089-.192.089-.013-.089-.192.089-.013-.089-.192.089-.013-.089-.192.089-.013-.089-.192.089-.013,9.3,20.049c-2.77,1.043-5.441,2.207-8.02,3.465Z" transform="translate(-666.063 -1505.784)" fill="#073669"/>
          <path id="Trazado_7" data-name="Trazado 7" d="M848.632,1557.323a33.857,33.857,0,0,0-8.238-15.979l25.668-14.819-.179.1.179.1-.179.1.179.1-.179.1.179.1-.179.1.179.1-.179.1.179.1-.179.1.179.1-.179.1.179.1-.179.1.179.1-.179.1.179.1-.179.1.179.1-.179.1.179.1-.179.1.179.1-.179.1.179.1-.179.1.179.1-.179.1.179.1-.179.1.179.1-.179.1.179.1-.179.1.179.1-.179.1.179.1-.179.1.179.1-.179.1.179.1-.179.1.179.1-.179.1.179.1-.179.1.179.1-.179.1.179.1-.179.1.179.1-.179.1.179.1-.179.1.179.1-.179.1.179.1-.179.1.179.1-.179.1.179.1-.179.1.179.1-.179.1.179.1-.179.1.179.1-.179.1.179.1-.179.1.179.1-.179.1.179.1-.179.1.179.1-.179.1.179.1-.179.1.179.1-.179.1.179.1-.179.1.179.1-.179.1.179.1-.179.1.179.1-.179.1.179.1-.179.1.179.1-.179.1.179.1-.179.1.179.1-.179.1.179.1-.179.1.179.1-.179.1.179.1-.179.1.179.1-.179.1.179.1-.179.1.179.1-.179.1.179.1-.179.1.179.1-.179.1.179.1-.179.1.179.1-.179.1.179.1-.179.1.179.1-.179.1.179.1-.179.1.179.1-.179.1.179.1-.179.1.179.1-.179.1.179.1-.179.1.179.1-.179.1.179.1-.179.1.179.1-.179.1.179.1-.179.1.179.1-.179.1.179.1-.179.1.179.1-.179.1.179.1-.179.1.179.1-.179.1.179.1-.179.1.179.1-.179.1.179.1-.179.1.179.1-.179.1.179.1-.179.1.179.1-.179.1.179.1-.179.1.179.1-.179.1.179.1-.179.1.179.1-.179.1.179.1-.179.1.179.1-.179.1.179.1-.179.1.179.1-.179.1.179.1-.179.1.179.1-.179.1.179.1-.179.1.179.1-.179.1.179.1-.179.1.179.1-.179.1.179.1-.179.1.179.1-.179.1.179.1-.179.1.179.1-.179.1.179.1-.179.1.179.1-.179.1.179.1Z" transform="translate(-653.101 -1503.387)" fill="#073669"/>
        </g>
      </g>
      <g id="Grupo_5" data-name="Grupo 5" transform="translate(629.433 1130.374)">
        <path id="Trazado_8" data-name="Trazado 8" d="M880.849,1444.05l-24.222-3.747-8.931,19.242,24.233,3.749a22.627,22.627,0,0,0,5.952,12.839l-17.734,10.239,24.4,14.086,17.734-10.239a89.211,89.211,0,0,0,22.239,3.436l6.493,13.991,33.329-5.156-6.49-13.985a60.919,60.919,0,0,0,8.989-4.21,44.68,44.68,0,0,0,7.293-5.191l24.222,3.747,8.931-19.242-24.233-3.749a22.628,22.628,0,0,0-5.952-12.839l17.734-10.239-24.4-14.086L952.7,1432.935a89.238,89.238,0,0,0-22.237-3.436l-6.493-13.991-33.33,5.156,6.49,13.985a60.919,60.919,0,0,0-8.989,4.211A44.675,44.675,0,0,0,880.849,1444.05Zm26.869,6.112c10.919-6.3,28.624-6.3,39.544,0s10.92,16.527,0,22.831-28.624,6.305-39.544,0S896.8,1456.467,907.719,1450.162Z" transform="translate(-847.696 -1415.508)" fill="#073669" opacity="0.44"/>
        <g id="Grupo_4" data-name="Grupo 4" transform="translate(0 5.289)">
          <path id="Trazado_9" data-name="Trazado 9" d="M899.22,1467.736c-7.657-6.3-6.62-15.045,3.129-20.675,10.919-6.3,28.624-6.3,39.544,0,8.707,5.027,10.464,12.543,5.286,18.579a20.2,20.2,0,0,0-5.286-4.251c-10.92-6.305-28.625-6.305-39.544,0a20.2,20.2,0,0,0-5.285,4.251A17.371,17.371,0,0,0,899.22,1467.736Z" transform="translate(-842.326 -1417.697)" fill="#073669"/>
          <path id="Trazado_10" data-name="Trazado 10" d="M955.428,1479.3a44.68,44.68,0,0,0,7.293-5.191l24.222,3.747,8.869-19.111.063.01-.062.133.063.009-.062.133.063.009-.062.133.063.009-.062.133.063.01-.062.132.063.01-.062.132.063.01-.062.133.063.009-.062.133.063.009-.062.133.063.01-.062.132.063.009-.062.133.063.01-.062.132.063.01-.062.131.063.01-.062.133.063.009-.062.133.063.009-.062.133.063.009-.062.133.063.01-.062.132.063.01-.062.132.063.01-.062.132.063.01-.062.133.063.009-.062.133.063.009-.062.133.063.009-.062.133.063.01-.062.132.063.01-.062.132.063.01-.062.133.063.009-.062.133.063.009-.062.133.063.009-.062.133.063.01-.062.132.063.01-.062.132.063.01-.062.133.063.009-.062.133.063.009-.062.133.063.009-.062.133.063.009-.062.133.063.01-.062.132.063.01-.062.132.063.01-.062.133.063.009-.062.133.063.009-.062.133.063.01-.062.132.063.01-.062.132.063.01-.062.132.063.01-.062.132.063.01-.062.133.063.009-.062.133.063.009-.062.133.063.009-.062.133.063.01-.062.132.063.01-.062.132.063.01-.062.133.063.009-.062.133.063.009-.062.133.063.009-.062.133.063.009-.062.133.063.01-.062.132.063.01-.062.133.063.009-.062.133.063.009-.062.133.063.009-.062.133.063.009-.062.133.063.01-.062.132.063.01-.062.132.063.01-.062.133.063.009-.062.133.063.009-.062.133.063.009-.062.133.063.01-.062.132.063.01-.062.132.063.01-.062.133.063.009-.062.133.063.009-.062.133.063.009-.062.133.063.01-.062.132.063.01-.062.132.063.01-.062.132.063.01-.062.133.063.009-.062.133.063.009-.062.133.063.009-.062.133.063.009-.062.133.063.01-.062.132.063.01-.062.133.063.009-.062.133.063.009-.062.133.063.009-.062.133.063.01-.062.132.063.01-.062.132.063.01-.062.132.063.01-.062.133.063.009-.062.133.063.009-.062.133.063.009-.062.133.063.01-.062.132.063.01-.062.132.063.01-.062.133.063.009-.062.133.063.009-.062.133.063.009-8.931,19.243-24.222-3.747a44.662,44.662,0,0,1-7.293,5.189c-1.112.643-2.27,1.242-3.45,1.819l.952,2.05-6.49-13.985A60.932,60.932,0,0,0,955.428,1479.3Z" transform="translate(-836.286 -1415.801)" fill="#073669"/>
          <path id="Trazado_11" data-name="Trazado 11" d="M883.255,1493.117l17.734-10.239a89.211,89.211,0,0,0,22.239,3.436l6.493,13.991,33.329-5.156-.061.01.061.132-.061.01.061.133-.061.009.061.133-.061.009.061.133-.061.009.061.133-.061.009.061.133-.061.01.061.132-.061.01.061.131-.061.01.061.133-.061.009.061.133-.061.009.061.133-.061.009.061.133-.061.009.061.133-.061.01.061.132-.061.01.061.133-.061.009.061.133-.061.009.061.133-.061.009.061.133-.061.009.061.133-.061.01.061.132-.061.01.061.132-.061.01.061.131-.061.01.061.133-.061.009.061.133-.061.009.061.133-.061.01.061.132-.061.01.061.131-.061.01.061.132-.061.01.061.133-.061.009.061.133-.061.009.061.133-.061.009.061.133-.061.01.061.132-.061.01.061.132-.061.01.061.133-.061.009.061.133-.061.009.061.133-.061.009.061.133-.061.01.061.132-.061.01.061.132-.061.01.061.133-.061.009.061.133-.061.009.061.133-.061.009.061.133-.061.009.061.133-.061.01.061.131-.061.01.061.132-.061.01.061.133-.061.009.061.133-.061.009.061.133-.061.009.061.133-.061.01.061.132-.061.01.061.132-.061.01.061.131-.061.01.061.133-.061.009.061.133-.061.009.061.133-.061.009.061.133-.061.01.061.132-.061.01.061.132-.061.01.061.133-.061.009.061.133-.061.009.061.133-.061.009.061.133-.061.01.061.132-.061.01.061.132-.061.01.061.133-.061.009.061.133-.061.009.061.133-.061.009.061.133-.061.009.061.133-.061.01.061.132-.061.01.061.131-.061.01.061.133-.061.009.061.133-.061.009.061.133-.061.01.061.132-.061.01.061.131-.061.01.061.132-.061.01.061.132-.061.01.061.133-.061.009.061.133-.061.009.061.133-.061.01.061.132-.061.01.061.132-.061.01.061.132-.061.01.061.133-.061.009.061.133-.061.009.061.133-.061.009.061.133-.061.009.061.133-.061.01.061.131-.061.01.061.133-.061.009.061.133-.061.009.061.133-.061.009.061.133-.061.009.061.133-.061.01.061.132-.061.01.061.132-.061.01.061.133-.061.009.061.133-33.329,5.156-6.493-13.991a89.312,89.312,0,0,1-22.239-3.436l-17.734,10.239-24.4-14.086.123-.071-.123-.072.123-.07-.123-.071.123-.07-.123-.071.123-.07-.123-.071.123-.071-.123-.07.123-.072-.123-.07.123-.071-.123-.071.123-.07-.123-.072.123-.07-.123-.071.123-.07-.123-.071.123-.072-.123-.07.123-.071-.123-.07.123-.071-.123-.07.123-.071-.123-.071.123-.07-.123-.072.123-.07-.123-.071.123-.07-.123-.071.123-.072-.123-.07.123-.071-.123-.07.123-.071-.123-.07.123-.072-.123-.071.123-.07-.123-.071.123-.07-.123-.071.123-.07-.123-.071.123-.071-.123-.07.123-.071-.123-.071.123-.07-.123-.072.123-.07-.123-.071.123-.07-.123-.071.123-.072-.123-.07.123-.071-.123-.07.123-.071-.123-.07.123-.071-.123-.071.123-.07-.123-.071.123-.07-.123-.071.123-.07-.123-.071.123-.071-.123-.07.123-.071-.123-.07.123-.071-.123-.07.123-.072-.123-.071.123-.07-.123-.071.123-.07-.123-.072.123-.07-.123-.071.123-.071-.123-.07.123-.072-.123-.07.123-.071-.123-.07.123-.071-.123-.072.123-.07-.123-.071.123-.07-.123-.071.123-.07-.123-.071.123-.071-.123-.07.123-.071-.123-.07.123-.071-.123-.07.123-.071-.123-.071.123-.07-.123-.071.123-.071-.123-.07.123-.072-.123-.07.123-.071-.123-.07.123-.071-.123-.072.123-.07-.123-.071.123-.07-.123-.072.123-.07-.123-.071.123-.071-.123-.07.123-.072-.123-.07.123-.071-.123-.07.123-.071-.123-.072.123-.07-.123-.071.123-.07-.123-.071.123-.07-.123-.071.123-.071-.123-.07.123-.071-.123-.07.123-.071-.123-.07.123-.071-.123-.072.123-.07-.123-.071.123-.07-.123-.071.123-.07-.123-.071.123-.071-.123-.07.123-.071-.123-.07.123-.071-.123-.07.123-.071-.123-.071.123-.07-.123-.071.123-.071-.123-.07.123-.071-.123-.07.123-.071-.123-.07.123-.071-.123-.071.123-.07-.123-.071.123-.07-.123-.071.123-.07-.123-.072.123-.071-.123-.07.123-.071-.123-.07.123-.072-.123-.07.123-.071-.123-.071.123-.07-.123-.072.123-.07-.123-.071.123-.071-.123-.07.123-.071-.123-.07.123-.071-.123-.07.123-.071-.123-.071.123-.07-.123-.071.123-.07-.123-.071.123-.07-.123-.071Z" transform="translate(-846.406 -1413.456)" fill="#073669"/>
          <path id="Trazado_12" data-name="Trazado 12" d="M847.758,1454.993l-.062-.01,24.233,3.749a22.627,22.627,0,0,0,5.952,12.839l-5.692,3.286c-.114-.6-.2-1.2-.26-1.8L847.7,1469.31l.063-.133-.062-.009.063-.133-.062-.009.063-.133-.062-.009.063-.133-.062-.01.063-.132-.062-.01.063-.133-.062-.009.063-.133-.062-.009.063-.133-.062-.009.063-.133-.062-.009.063-.133-.062-.01.063-.132-.062-.01.063-.132-.062-.01.063-.133-.062-.009.063-.133-.062-.009.063-.133-.062-.009.063-.133-.062-.009.063-.133-.062-.01.063-.131-.062-.01.063-.132-.062-.01.063-.133-.062-.009.063-.133-.062-.009.063-.133-.062-.01.063-.131-.062-.01.063-.132-.062-.01.063-.132-.062-.01.063-.132-.062-.01.063-.133-.062-.009.063-.133-.062-.009.063-.133-.062-.01.063-.132-.062-.01.063-.132-.062-.01.063-.132-.062-.01.063-.133-.062-.009.063-.133-.062-.009.063-.133-.062-.009.063-.133-.062-.009.063-.133-.062-.01.063-.131-.062-.01.063-.133-.062-.009.063-.133-.062-.009.063-.133-.062-.009.063-.133-.062-.01.063-.132-.062-.01.063-.132-.062-.01.063-.132-.062-.01.063-.133-.062-.009.063-.133-.062-.009.063-.133-.062-.01.063-.132-.062-.01.063-.132-.062-.01.063-.132-.062-.01.063-.132-.062-.01.063-.133-.062-.009.063-.133-.062-.009.063-.133-.062-.01.063-.132-.062-.01.063-.132-.062-.01.063-.132-.062-.01.063-.133-.062-.009.063-.133-.062-.009.063-.133-.062-.009.063-.133-.062-.01.063-.132-.062-.01.063-.132-.062-.01.063-.133-.062-.009.063-.133-.062-.009.063-.133-.062-.009.063-.133-.062-.009.063-.133-.062-.01.063-.132-.062-.01.063-.132-.062-.01.063-.133-.062-.009.063-.133-.062-.009.063-.133-.062-.009.063-.133-.062-.01.063-.132-.062-.01.063-.132-.062-.01.063-.132-.062-.01.063-.133-.062-.009.063-.133-.062-.009.063-.133-.062-.01.063-.132-.062-.01.063-.132-.062-.01.063-.131-.062-.01.063-.133-.062-.009.063-.133-.062-.009.063-.133-.062-.009.063-.133-.062-.01.063-.132-.062-.01.063-.132-.062-.01.063-.133-.062-.009.063-.133-.062-.009.063-.133-.062-.009.063-.133-.062-.009.063-.133-.062-.01.063-.132-.062-.01.063-.133-.062-.009.063-.133-.062-.009.063-.133-.062-.009.063-.133-.062-.009Z" transform="translate(-847.696 -1416.235)" fill="#073669"/>
          <path id="Trazado_13" data-name="Trazado 13" d="M887.145,1436.494l-.952-2.05.061-.01-.061-.133.061-.009-.061-.133.061-.009-.061-.133.061-.009-.061-.133.061-.01-.061-.131.061-.01-.061-.132.061-.01-.061-.133.061-.009-.061-.133.061-.009-.061-.133.061-.009-.061-.133.061-.009-.061-.133.061-.01-.061-.132.061-.01-.061-.132.061-.01-.061-.133.061-.009-.061-.133.061-.009-.061-.133.061-.009-.061-.133.061-.01-.061-.132.061-.01-.061-.132.061-.01-.061-.133.061-.009-.061-.133.061-.009-.061-.133.061-.009-.061-.133.061-.009-.061-.133.061-.01-.061-.132.061-.01-.061-.132.061-.01-.061-.133.061-.009-.061-.133.061-.009-.061-.133.061-.01-.061-.132.061-.01-.061-.132.061-.01-.061-.131.061-.01-.061-.132.061-.01-.061-.133.061-.009-.061-.133.061-.009-.061-.133.061-.01-.061-.132.061-.01-.061-.132.061-.01-.061-.132.061-.01-.061-.133.061-.009-.061-.133.061-.009-.061-.133.061-.009-.061-.133.061-.01-.061-.132.061-.01-.061-.132.061-.01-.061-.133.061-.009-.061-.133.061-.009-.061-.133.061-.009-.061-.133.061-.009-.061-.133.061-.01-.061-.131.061-.01-.061-.132.061-.01-.061-.133.061-.009-.061-.133.061-.009-.061-.133.061-.009-.061-.133.061-.01-.061-.132.061-.01-.061-.132.061-.01-.061-.132.061-.01-.061-.133.061-.009-.061-.133.061-.009-.061-.133.061-.01-.061-.132.061-.01-.061-.132.061-.01-.061-.132.061-.01-.061-.133.061-.009-.061-.133.061-.009-.061-.133.061-.009-.061-.133.061-.01-.061-.131.061-.01-.061-.132.061-.01-.061-.133.061-.009-.061-.133.061-.009-.061-.133.061-.009-.061-.133.061-.009-.061-.133.061-.01-.061-.132.061-.01-.061-.133.061-.009-.061-.133.061-.009-.061-.133.061-.009-.061-.133.061-.01-.061-.132.061-.01-.061-.132.061-.01-.061-.132.061-.01-.061-.132.061-.01-.061-.133.061-.009-.061-.133.061-.009-.061-.133.061-.01-.061-.132.061-.01-.061-.132.061-.01-.061-.132.061-.01-.061-.133.061-.009-.061-.133.061-.009-.061-.133.061-.009-.061-.133.061-.01-.061-.132.061-.01-.061-.131.061-.01-.061-.133.061-.009-.061-.133.061-.009-.061-.133.061-.009,6.429,13.852c-1.913.721-3.759,1.525-5.541,2.394Z" transform="translate(-843.247 -1420.249)" fill="#073669"/>
          <path id="Trazado_14" data-name="Trazado 14" d="M969.388,1455.858a23.389,23.389,0,0,0-5.692-11.041l17.734-10.239-.123.071.123.07-.123.071.123.071-.123.07.123.072-.123.07.123.071-.123.07.123.071-.123.072.123.07-.123.071.123.07-.123.071.123.07-.123.071.123.07-.123.071.123.071-.123.07.123.071-.123.07.123.071-.123.07.123.072-.123.071.123.07-.123.071.123.071-.123.07.123.071-.123.07.123.071-.123.07.123.072-.123.07.123.071-.123.071.123.07-.123.072.123.07-.123.071.123.071-.123.07.123.072-.123.07.123.071-.123.07.123.071-.123.071.123.07-.123.071.123.07-.123.071.123.071-.123.07.123.071-.123.07.123.071-.123.07.123.071-.123.071.123.07-.123.072.123.07-.123.071.123.07-.123.071.123.072-.123.07.123.071-.123.07.123.072-.123.07.123.071-.123.071.123.07-.123.072.123.07-.123.071.123.07-.123.071.123.072-.123.07.123.071-.123.07.123.071-.123.07.123.071-.123.071.123.07-.123.071.123.07-.123.071.123.07-.123.071.123.072-.123.07.123.071-.123.07.123.071-.123.072.123.07-.123.071.123.07-.123.071.123.07-.123.071.123.071-.123.07.123.071-.123.07.123.071-.123.071.123.07-.123.071.123.07-.123.071.123.07-.123.071.123.071-.123.07.123.071-.123.07.123.071-.123.07.123.072-.123.071.123.07-.123.071.123.07-.123.072.123.07-.123.071.123.071-.123.07.123.072-.123.07.123.071-.123.07.123.071-.123.071.123.07-.123.071.123.07-.123.071.123.07-.123.071.123.071-.123.07.123.071-.123.071.123.07-.123.071.123.07-.123.071.123.07-.123.071.123.071-.123.07.123.071-.123.07.123.071-.123.07.123.072-.123.071.123.07-.123.071.123.07-.123.072.123.07-.123.071.123.071-.123.07.123.072-.123.07.123.071-.123.07.123.071-.123.072.123.07-.123.071.123.07-.123.071.123.07-.123.071.123.071-.123.07.123.072-.123.07.123.071-.123.07.123.071-.123.072.123.07-.123.071.123.07-.123.071.123.07-.123.071.123.071Z" transform="translate(-834.291 -1418.593)" fill="#073669"/>
        </g>
      </g>
      <g id="Grupo_7" data-name="Grupo 7" transform="translate(817.988 205.523)">
        <path id="Trazado_15" data-name="Trazado 15" d="M1046.4,1109c-40.245-53.3-39.472-133.753,1.788-186.268,28.014-35.655,71.353-58.242,94.285-97.36,23.526-40.133,21.294-90.255,37.775-133.759,24.291-64.118,92.675-108.651,161.139-104.939-40.723,26.907-50.093,88.055-39.126,135.617s33.351,93.552,31.569,142.33c-1.724,47.19-26.442,91.19-59.081,125.315s-72.941,59.773-112.812,85.072c-18.409,11.682-37.219,23.539-58.354,28.9S1059.534,1126.4,1046.4,1109Z" transform="translate(-1016.719 -586.46)" fill="#c7dafb" opacity="0.47"/>
        <path id="Trazado_16" data-name="Trazado 16" d="M1099.505,1111.858a814.565,814.565,0,0,0,74.722-122.366,4.3,4.3,0,0,0,.686-1.386q10.089-20.443,19.033-41.4a268.042,268.042,0,0,0,81.807-58.35,4.386,4.386,0,0,0-.151-6.112,4.324,4.324,0,0,0-6.113.151,259.56,259.56,0,0,1-70.555,52.323,815.277,815.277,0,0,0,28.94-83.938,4.361,4.361,0,0,0,.539-.406,526.02,526.02,0,0,0,61.14-67.024,4.324,4.324,0,0,0-6.87-5.254,517.561,517.561,0,0,1-50.433,56.716,814.471,814.471,0,0,0,22.9-127.128,4.324,4.324,0,1,0-8.605-.851q-3.937,39.79-11.779,78.84L1208.6,719.99a4.323,4.323,0,1,0-8.032,3.2l30.48,76.506a4.29,4.29,0,0,0,.577.992,806.883,806.883,0,0,1-23.219,83.636,589.526,589.526,0,0,1-51.984-79.5,4.324,4.324,0,1,0-7.6,4.131,598.074,598.074,0,0,0,56.229,85.163q-8.312,23.71-18.08,46.87a4.33,4.33,0,0,0-.828,1.966q-7.682,18.067-16.24,35.757a401.108,401.108,0,0,1-44.1-72.59,4.324,4.324,0,1,0-7.827,3.678,409.8,409.8,0,0,0,47.661,77.552,805.948,805.948,0,0,1-73.086,119.362,4.324,4.324,0,0,0,6.954,5.141Z" transform="translate(-1008.053 -573)" opacity="0.1"/>
        <path id="Trazado_17" data-name="Trazado 17" d="M1328.424,837.722a160.486,160.486,0,0,0-.423-18.477,286.263,286.263,0,0,0-165.3,69.8c-60.969,53.3-97.561,120.866-99.23,199.813,10.813-2.34,23.028-8.887,34.7-11.847,21.134-5.358,39.944-17.215,58.353-28.9,39.871-25.3,80.173-50.948,112.812-85.072S1326.7,884.911,1328.424,837.722Z" transform="translate(-1011.316 -559.559)" opacity="0.1"/>
        <g id="Grupo_6" data-name="Grupo 6" transform="translate(17.987 292.475)">
          <path id="Trazado_18" data-name="Trazado 18" d="M1067.048,1109.567a369.23,369.23,0,0,0,368.521-248.806,286.066,286.066,0,0,0-247.156,40.129C1116.574,951.5,1071.517,1021.807,1067.048,1109.567Z" transform="translate(-1028.889 -848.638)" fill="#c7daf2"/>
          <path id="Trazado_19" data-name="Trazado 19" d="M1033.8,1141.479a846.88,846.88,0,0,1,101.878-108.769,4.447,4.447,0,0,1,1.2-1.071q17.684-15.773,36.2-30.541a278.593,278.593,0,0,1,35.782-98.126,4.558,4.558,0,0,1,6.166-1.543,4.494,4.494,0,0,1,1.544,6.166,269.763,269.763,0,0,0-32.864,85.183,847.706,847.706,0,0,1,76.069-52.255,4.481,4.481,0,0,1,.258-.651,546.765,546.765,0,0,1,50.2-79.826,4.495,4.495,0,0,1,7.167,5.426,538.037,538.037,0,0,0-42.842,66.243,846.559,846.559,0,0,1,121.01-58.177,4.495,4.495,0,0,1,3.238,8.386q-38.773,14.971-75.719,33.65l73.051,8.012a4.494,4.494,0,0,1-.981,8.935l-85.09-9.333a4.438,4.438,0,0,1-1.153-.3,838.386,838.386,0,0,0-77.352,46.44,612.726,612.726,0,0,0,94.046,30.047,4.494,4.494,0,1,1-2.033,8.756,621.751,621.751,0,0,1-100.9-32.728q-21.449,14.9-41.944,31.1a4.5,4.5,0,0,1-1.739,1.374q-15.972,12.7-31.322,26.18a416.944,416.944,0,0,0,84.944,24.065,4.495,4.495,0,1,1-1.515,8.861,425.99,425.99,0,0,1-90.9-26.255,837.975,837.975,0,0,0-99.323,106.3,4.494,4.494,0,0,1-5.742,1.147,4.376,4.376,0,0,1-.568-.379A4.5,4.5,0,0,1,1033.8,1141.479Z" transform="translate(-1032.842 -847.526)" opacity="0.1"/>
        </g>
      </g>
      <g id="Grupo_9" data-name="Grupo 9" transform="translate(0 525.435)">
        <path id="Trazado_20" data-name="Trazado 20" d="M680.155,1412.16c41.507-54.969,40.71-137.948-1.844-192.109-28.893-36.774-73.591-60.068-97.241-100.414-24.263-41.392-21.962-93.085-38.96-137.953-25.053-66.128-95.581-112.058-166.192-108.229,42,27.751,51.664,90.815,40.353,139.87s-34.4,96.484-32.56,146.793c1.778,48.668,27.272,94.049,60.934,129.244s75.228,61.647,116.349,87.741c18.987,12.048,38.386,24.277,60.183,29.8S666.6,1430.1,680.155,1412.16Z" transform="translate(-272.78 -873.232)" fill="#c7dafb" opacity="0.47"/>
        <path id="Trazado_21" data-name="Trazado 21" d="M611.928,1415.1a840.154,840.154,0,0,1-77.066-126.2,4.438,4.438,0,0,1-.708-1.429q-10.4-21.086-19.629-42.7a276.45,276.45,0,0,1-84.371-60.18,4.523,4.523,0,0,1,.155-6.3,4.458,4.458,0,0,1,6.3.155,267.74,267.74,0,0,0,72.768,53.964,840.891,840.891,0,0,1-29.847-86.571,4.3,4.3,0,0,1-.556-.418,542.547,542.547,0,0,1-63.058-69.125,4.46,4.46,0,0,1,7.085-5.418,533.893,533.893,0,0,0,52.015,58.494A839.991,839.991,0,0,1,451.4,998.255a4.459,4.459,0,0,1,8.875-.878q4.061,41.039,12.148,81.312l26.988-67.74a4.459,4.459,0,1,1,8.285,3.3l-31.436,78.906a4.394,4.394,0,0,1-.6,1.022,832.146,832.146,0,0,0,23.949,86.258,607.89,607.89,0,0,0,53.614-81.988,4.46,4.46,0,1,1,7.836,4.26,616.852,616.852,0,0,1-57.992,87.833q8.572,24.453,18.647,48.339a4.456,4.456,0,0,1,.854,2.027q7.923,18.634,16.75,36.879a413.725,413.725,0,0,0,45.486-74.867,4.459,4.459,0,1,1,8.072,3.793,422.649,422.649,0,0,1-49.156,79.985A831.356,831.356,0,0,0,619.1,1409.8a4.46,4.46,0,0,1-.423,5.794,4.367,4.367,0,0,1-.513.443A4.458,4.458,0,0,1,611.928,1415.1Z" transform="translate(-268.264 -859.351)" opacity="0.1"/>
        <path id="Trazado_22" data-name="Trazado 22" d="M382.915,1132.373a165.738,165.738,0,0,1,.436-19.056A295.237,295.237,0,0,1,553.833,1185.3c62.881,54.969,100.62,124.656,102.341,206.079-11.152-2.414-23.751-9.165-35.793-12.219-21.8-5.526-41.2-17.755-60.183-29.8-41.122-26.094-82.686-52.546-116.349-87.741S384.693,1181.042,382.915,1132.373Z" transform="translate(-271.984 -845.489)" opacity="0.1"/>
        <g id="Grupo_8" data-name="Grupo 8" transform="translate(0 301.646)">
          <path id="Trazado_23" data-name="Trazado 23" d="M663.541,1412.742a380.805,380.805,0,0,1-380.077-256.608,295.034,295.034,0,0,1,254.906,41.388C612.462,1249.714,658.932,1322.231,663.541,1412.742Z" transform="translate(-283.464 -1143.632)" fill="#c7daf2"/>
          <path id="Trazado_24" data-name="Trazado 24" d="M697.867,1445.656a873.321,873.321,0,0,0-105.072-112.18,4.6,4.6,0,0,0-1.236-1.1q-18.238-16.268-37.337-31.5a287.333,287.333,0,0,0-36.906-101.2,4.7,4.7,0,0,0-6.358-1.591,4.633,4.633,0,0,0-1.592,6.359,278.25,278.25,0,0,1,33.894,87.855,874.25,874.25,0,0,0-78.454-53.894,4.681,4.681,0,0,0-.266-.671,563.922,563.922,0,0,0-51.775-82.329,4.635,4.635,0,1,0-7.392,5.6,555.042,555.042,0,0,1,44.185,68.32,873.136,873.136,0,0,0-124.805-60,4.635,4.635,0,0,0-3.339,8.648q39.988,15.442,78.092,34.7l-75.343,8.263a4.635,4.635,0,0,0,1.012,9.216l87.759-9.626a4.573,4.573,0,0,0,1.189-.312,864.61,864.61,0,0,1,79.778,47.9,631.935,631.935,0,0,1-97,30.988,4.636,4.636,0,0,0,2.1,9.031,641.276,641.276,0,0,0,104.064-33.755q22.123,15.363,43.26,32.077a4.629,4.629,0,0,0,1.793,1.417q16.472,13.1,32.3,27a430.022,430.022,0,0,1-87.608,24.819,4.636,4.636,0,1,0,1.563,9.139,439.324,439.324,0,0,0,93.751-27.077,863.987,863.987,0,0,1,102.438,109.63,4.636,4.636,0,0,0,5.921,1.182,4.462,4.462,0,0,0,.586-.392A4.635,4.635,0,0,0,697.867,1445.656Z" transform="translate(-279.421 -1142.485)" opacity="0.1"/>
        </g>
      </g>
      <g id="Grupo_11" data-name="Grupo 11" transform="translate(211.195 61.689)">
        <path id="Trazado_25" data-name="Trazado 25" d="M1208.863,463.582,517.224,862.9c-24.444,14.113-44.442,48.6-44.442,76.651l3.327,754.519c0,28.048,20,39.446,44.443,25.333l691.639-399.317c24.443-14.113,44.438-48.6,44.438-76.65L1253.3,488.919C1253.3,460.869,1233.307,449.471,1208.863,463.582Z" transform="translate(-472.782 -457.525)" fill="#c7daf2" fill-rule="evenodd"/>
        <path id="Trazado_26" data-name="Trazado 26" d="M1199.661,469.244,524.627,858.974c-23.859,13.776-43.375,47.435-43.375,74.807l1.126,746.485c0,27.372,19.514,38.5,43.375,24.726l675.034-389.731c23.863-13.777,43.374-47.439,43.374-74.812l-1.125-746.484C1243.036,466.593,1223.525,455.465,1199.661,469.244Z" transform="translate(-471.803 -456.855)" fill="#fff" fill-rule="evenodd"/>
        <path id="Trazado_27" data-name="Trazado 27" d="M1199.664,469.242,524.627,858.974c-23.859,13.776-43.375,47.435-43.375,74.807v125.062l761.784-439.816V493.966C1243.036,466.593,1223.525,455.466,1199.664,469.242Z" transform="translate(-471.803 -456.855)" fill="#073669" fill-rule="evenodd"/>
        <g id="Grupo_10" data-name="Grupo 10" transform="translate(60.03 402.324)">
          <path id="Trazado_28" data-name="Trazado 28" d="M634.664,850.331c7.288-4.208,13.229-14.453,13.229-22.811s-5.941-11.746-13.229-7.538-13.225,14.454-13.225,22.812S627.38,854.536,634.664,850.331Z" transform="translate(-515.634 -818.174)" fill="#f0f4ff" fill-rule="evenodd"/>
          <path id="Trazado_29" data-name="Trazado 29" d="M587.242,877.71c7.283-4.206,13.226-14.45,13.226-22.808s-5.943-11.746-13.226-7.541-13.226,14.454-13.226,22.812S579.959,881.914,587.242,877.71Z" transform="translate(-521.114 -815.01)" fill="#f0f4ff" fill-rule="evenodd"/>
          <path id="Trazado_30" data-name="Trazado 30" d="M539.822,905.088c7.28-4.2,13.226-14.451,13.226-22.809s-5.946-11.743-13.226-7.54-13.228,14.456-13.228,22.814S532.537,909.295,539.822,905.088Z" transform="translate(-526.594 -811.846)" fill="#f0f4ff" fill-rule="evenodd"/>
        </g>
      </g>
      <g id="Grupo_15" data-name="Grupo 15" transform="translate(356.736 641.756)">
        <g id="Grupo_12" data-name="Grupo 12" transform="translate(0 81.139)">
          <path id="Trazado_31" data-name="Trazado 31" d="M603.247,1340.083l47.7,29.272,111.49-119.417L806.9,1088.648a16.166,16.166,0,0,0-7.128-18.075l-29.269-17.963a16.057,16.057,0,0,0-16.309-.287l-137.468,77.844a26.581,26.581,0,0,0-13.481,23.128Z" transform="translate(-603.247 -1050.239)" fill="#d2e6f9"/>
        </g>
        <g id="Grupo_13" data-name="Grupo 13" transform="translate(47.699 113.423)">
          <path id="Trazado_32" data-name="Trazado 32" d="M646.005,1366.011l159.189-90.144V1087.023a7.833,7.833,0,0,0-11.692-6.816L659.487,1156.1a26.576,26.576,0,0,0-13.482,23.126Z" transform="translate(-646.005 -1079.178)" fill="#073669"/>
          <path id="Trazado_33" data-name="Trazado 33" d="M700.194,1203.048c0-14.024,8.948-30.459,19.983-36.709s19.984.052,19.984,14.076c0,9.924-4.524,20.987-11.053,28.863l6.412,32.195-30.686,17.377,6.412-39.457C704.718,1218.912,700.194,1212.972,700.194,1203.048Z" transform="translate(-639.743 -1069.385)" fill="#fff"/>
        </g>
        <g id="Grupo_14" data-name="Grupo 14" transform="translate(50.456)">
          <path id="Trazado_34" data-name="Trazado 34" d="M658.715,1145.249a10.236,10.236,0,0,0,10.241-10.24v-69.182c0-24.5,16.489-54.018,36.01-64.44,7.076-3.784,13.411-4.4,17.865-1.726,5.4,3.241,8.5,11.226,8.5,21.916v69.182a10.24,10.24,0,1,0,20.479,0v-69.182c0-18.062-6.723-32.453-18.442-39.479-10.853-6.526-24.377-6.082-38.048,1.219-26.271,14.031-46.842,50.275-46.842,82.509v69.182A10.235,10.235,0,0,0,658.715,1145.249Z" transform="translate(-648.476 -977.505)" fill="#073669"/>
        </g>
      </g>
      <path id="Trazado_35" data-name="Trazado 35" d="M988.092,937.972c9.724-12.884,16.153-28.172,16.153-40.694,0-19.86-16.157-25.335-36.018-12.2s-36.017,39.968-36.017,59.83c0,12.521,6.429,19.308,16.152,19.336-22,22.665-37.763,54.205-37.763,78.992l9.6-6.35c0-26.481,21.542-62.266,48.023-79.773s48.024-10.206,48.024,16.275l9.6-6.351C1025.855,942.245,1010.094,931.545,988.092,937.972ZM968.228,947.5c-14.564,9.628-26.412,5.613-26.412-8.95s11.848-34.247,26.412-43.875,26.413-5.615,26.413,8.95S982.792,937.875,968.228,947.5Z" transform="translate(-210.994 -347.256)" fill="#11345e"/>
      <g id="Grupo_16" data-name="Grupo 16" transform="translate(608.183 575.337)">
        <path id="Trazado_36" data-name="Trazado 36" d="M1163.754,965.051,828.647,1158.525V1111.44l335.107-193.474Z" transform="translate(-828.647 -917.965)" fill="#d2e6f9"/>
      </g>
      <g id="Grupo_19" data-name="Grupo 19" transform="translate(608.183 651.833)">
        <path id="Trazado_37" data-name="Trazado 37" d="M1163.754,1033.623,828.647,1227.1v-47.086l335.107-193.474Z" transform="translate(-828.647 -986.537)" fill="#d2e6f9"/>
        <g id="Grupo_18" data-name="Grupo 18" transform="translate(105.919 51.52)">
          <g id="Grupo_17" data-name="Grupo 17">
            <circle id="Elipse_1" data-name="Elipse 1" cx="10.061" cy="10.061" r="10.061" transform="translate(0 88.58)" fill="#11345e"/>
            <circle id="Elipse_2" data-name="Elipse 2" cx="10.061" cy="10.061" r="10.061" transform="translate(37.706 66.435)" fill="#11345e"/>
            <path id="Trazado_38" data-name="Trazado 38" d="M1010.254,1082.843c-.2,5.553,5.337,9.894-.216,9.7a10.061,10.061,0,0,1,.718-20.109C1016.31,1072.627,1010.453,1077.29,1010.254,1082.843Z" transform="translate(-914.726 -1028.133)" fill="#11345e"/>
            <circle id="Elipse_3" data-name="Elipse 3" cx="10.061" cy="10.061" r="10.061" transform="translate(113.118 22.145)" fill="#11345e"/>
            <circle id="Elipse_4" data-name="Elipse 4" cx="10.061" cy="10.061" r="10.061" transform="translate(150.825)" fill="#11345e"/>
          </g>
        </g>
      </g>
      <g id="Grupo_21" data-name="Grupo 21" transform="translate(664.489 784.289)">
        <path id="Trazado_39" data-name="Trazado 39" d="M1120.668,1163.726l-230.877,133.3a7.114,7.114,0,0,1-10.671-6.161v-45.168a7.117,7.117,0,0,1,3.558-6.161l230.877-133.3a7.114,7.114,0,0,1,10.671,6.161v45.167A7.114,7.114,0,0,1,1120.668,1163.726Z" transform="translate(-879.12 -1105.273)" fill="#0093ca"/>
        <g id="Grupo_20" data-name="Grupo 20" transform="translate(72.754 51.464)">
          <path id="Trazado_40" data-name="Trazado 40" d="M944.338,1233.6v-27.378l6.447-3.721v21.4l9.187-5.3v5.973Z" transform="translate(-944.338 -1145.501)" fill="#fff"/>
          <path id="Trazado_41" data-name="Trazado 41" d="M984.192,1197.439a24.673,24.673,0,0,1-2.954,12.212,22.52,22.52,0,0,1-8.65,8.588q-5.612,3.243-8.608,1.357t-2.994-8.8a24.485,24.485,0,0,1,2.978-12.16,22.609,22.609,0,0,1,8.658-8.6q5.694-3.288,8.633-1.408T984.192,1197.439Zm-16.418,9.479q0,7.94,4.814,5.161a8.646,8.646,0,0,0,3.631-4.025,16.285,16.285,0,0,0,1.184-6.694q0-4.1-1.2-5.366t-3.582.112Q967.775,1198.9,967.774,1206.918Z" transform="translate(-942.414 -1147.183)" fill="#fff"/>
          <path id="Trazado_42" data-name="Trazado 42" d="M995.321,1188.828l10.3-5.945v14.755a46.78,46.78,0,0,1-9.22,6.971q-5.517,3.185-8.527,1.254t-3.011-8.731a23.637,23.637,0,0,1,3.3-12.221,24.987,24.987,0,0,1,9.237-9.021,23.416,23.416,0,0,1,4.251-1.968,14.618,14.618,0,0,1,3.484-.774l-2.039,6.981a11.771,11.771,0,0,0-5.664,1.808,11.053,11.053,0,0,0-4.365,4.628,14.89,14.89,0,0,0-1.542,6.91q0,3.84,1.394,5.047t4.024-.309a18.412,18.412,0,0,0,2.643-1.844v-4.288l-4.259,2.458Z" transform="translate(-939.655 -1148.894)" fill="#fff"/>
          <path id="Trazado_43" data-name="Trazado 43" d="M1007.827,1196.949v-27.376l6.479-3.74v27.376Z" transform="translate(-937.001 -1149.739)" fill="#fff"/>
          <path id="Trazado_44" data-name="Trazado 44" d="M1040.973,1178.785l-8.454,4.88-8.714-14.257-.147.086q.31,4.371.31,6.768v12.34l-5.712,3.3v-27.378l8.42-4.861,8.682,14.014.1-.056q-.228-4.008-.229-6.516v-12.378l5.745-3.318Z" transform="translate(-935.796 -1151.406)" fill="#fff"/>
        </g>
      </g>
      <g id="Grupo_27" data-name="Grupo 27" transform="translate(921.926 105.653)">
        <g id="Grupo_22" data-name="Grupo 22">
          <path id="Trazado_45" data-name="Trazado 45" d="M1419.268,499.481l-290.7,167.835c-10.274,5.931-18.68,20.429-18.68,32.217V939.52c0,11.788,8.406,16.581,18.68,10.649l290.7-167.835c10.273-5.931,18.679-20.429,18.679-32.217V510.13C1437.947,498.342,1429.541,493.549,1419.268,499.481Z" transform="translate(-1109.89 -496.935)" fill="#d1d4eb" fill-rule="evenodd"/>
          <path id="Trazado_46" data-name="Trazado 46" d="M1413.174,507.621l-277.8,160.388c-9.818,5.668-17.85,19.523-17.85,30.788V928.138c0,11.266,8.032,15.845,17.85,10.177l277.8-160.389c9.817-5.668,17.849-19.522,17.849-30.788V517.8C1431.023,506.532,1422.991,501.953,1413.174,507.621Z" transform="translate(-1109.008 -495.981)" fill="#073669" fill-rule="evenodd"/>
        </g>
        <path id="Trazado_47" data-name="Trazado 47" d="M1266.644,654.123c5.678-7.525,9.433-16.452,9.433-23.764,0-11.6-9.434-14.8-21.033-7.128s-21.034,23.341-21.034,34.939c0,7.311,3.755,11.275,9.433,11.292-12.849,13.235-22.052,31.654-22.052,46.128l5.609-3.708c0-15.464,12.58-36.361,28.044-46.585s28.043-5.96,28.043,9.5l5.609-3.708C1288.7,656.619,1279.493,650.37,1266.644,654.123Zm-11.6,5.565c-8.505,5.624-15.425,3.279-15.425-5.226s6.92-20,15.425-25.622,15.424-3.278,15.424,5.227S1263.548,654.066,1255.044,659.689Z" transform="translate(-1097.005 -482.823)" fill="#fff"/>
        <g id="Grupo_23" data-name="Grupo 23" transform="translate(39.87 151.268)">
          <path id="Trazado_48" data-name="Trazado 48" d="M1398.018,668,1145.63,813.713V778.25l252.388-145.716Z" transform="translate(-1145.63 -632.534)" fill="#fff"/>
        </g>
        <g id="Grupo_26" data-name="Grupo 26" transform="translate(39.87 206.842)">
          <path id="Trazado_49" data-name="Trazado 49" d="M1398.018,717.814,1145.63,863.53V828.067l252.388-145.716Z" transform="translate(-1145.63 -682.351)" fill="#fff"/>
          <g id="Grupo_25" data-name="Grupo 25" transform="translate(79.773 38.803)">
            <g id="Grupo_24" data-name="Grupo 24">
              <circle id="Elipse_5" data-name="Elipse 5" cx="7.578" cy="7.578" r="7.578" transform="translate(0 66.714)" fill="#11345e"/>
              <circle id="Elipse_6" data-name="Elipse 6" cx="7.578" cy="7.578" r="7.578" transform="translate(28.399 50.036)" fill="#11345e"/>
              <circle id="Elipse_7" data-name="Elipse 7" cx="7.578" cy="7.578" r="7.578" transform="translate(56.797 33.357)" fill="#11345e"/>
              <circle id="Elipse_8" data-name="Elipse 8" cx="7.578" cy="7.578" r="7.578" transform="translate(85.196 16.679)" fill="#11345e"/>
              <circle id="Elipse_9" data-name="Elipse 9" cx="7.578" cy="7.578" r="7.578" transform="translate(113.594)" fill="#11345e"/>
            </g>
          </g>
        </g>
      </g>
      <ellipse id="Elipse_10" data-name="Elipse 10" cx="85.803" cy="43.763" rx="85.803" ry="43.763" transform="translate(223.352 1453.831) rotate(-17.277)" fill="#c8e6eb"/>
      <ellipse id="Elipse_11" data-name="Elipse 11" cx="107.892" cy="55.03" rx="107.892" ry="55.03" transform="translate(955.493 1335.207) rotate(-17.277)" fill="#c8e6eb"/>
      <g id="Grupo_30" data-name="Grupo 30" transform="translate(236.142 889.259)">
        <path id="Trazado_50" data-name="Trazado 50" d="M604.2,1266.563c25.677,10.536,26.783,71.818,32.488,79.629,8.957,12.261,45.259,58.844,49.669,66.341s-12.348,19.552-17.64,14.187c-4.209-4.27-40.063-40.277-54.545-54.818a21.911,21.911,0,0,1-6.37-14.6Z" transform="translate(-482.542 -1191.605)" fill="#9ebbdb"/>
        <g id="Grupo_28" data-name="Grupo 28">
          <path id="Trazado_51" data-name="Trazado 51" d="M519.078,1734.676s3.465-131.2,3.465-145.168-14.7-107.638-1.24-150.561l102.1,9.48s2,43.318,2,46.573c0,5.079-15.463,140.129-13.494,205.754l-39.977,3.779s-.736-87,7.032-120.894c.387-20.416-1.191-66.349-1.191-66.349s-13.48,61.512-14.913,75.839-10.345,144.115-10.345,144.115S532.689,1734.676,519.078,1734.676Z" transform="translate(-492.777 -1171.684)" fill="#073669"/>
          <path id="Trazado_52" data-name="Trazado 52" d="M496,1362.421s-4.7-16.76,7.984-43.5c7.268-15.322,27.912-28.161,52.748-40.237,47.359-23.03,65.85-17.177,72.121,5.186,2.922,10.416,5.577,49.946,2.517,71.8-5.01,35.778-7.083,95.021-4,117.4.615,4.453-12.8,15.635-40.667,21.728-20.2,4.415-66.2,2.86-70.714-15.841l2.645-108.748Z" transform="translate(-495.144 -1191.901)" fill="#c7daf2"/>
          <path id="Trazado_53" data-name="Trazado 53" d="M593.377,1284.7c0,7.616-9.7,13.791-21.666,13.791s-21.666-6.175-21.666-13.791,9.7-13.792,21.666-13.792S593.377,1277.086,593.377,1284.7Z" transform="translate(-488.8 -1191.102)" fill="#fcae6e"/>
          <path id="Rectángulo_2" data-name="Rectángulo 2" d="M0,0H38.515a0,0,0,0,1,0,0V40.592a.852.852,0,0,1-.852.852H1.639A1.639,1.639,0,0,1,0,39.8V0A0,0,0,0,1,0,0Z" transform="translate(64.584 58.077)" fill="#fcae6e"/>
          <path id="Trazado_54" data-name="Trazado 54" d="M556.809,1251.431c0,17.64,10.4,33.323,27.106,39h0a5.45,5.45,0,0,0,7.2-5.161v-33.836Z" transform="translate(-488.019 -1193.353)" fill="#f29955"/>
          <path id="Trazado_55" data-name="Trazado 55" d="M605.818,1240.554c-1.695,25.533-6.521,45.468-19.616,45.468-19.429,0-33.164-20.419-33.164-46.009s1.117-39.545,20.546-39.545S607.482,1215.482,605.818,1240.554Z" transform="translate(-488.454 -1199.243)" fill="#fcae6e"/>
          <path id="Trazado_56" data-name="Trazado 56" d="M554.224,1275.712a147.225,147.225,0,0,1,2.86-29.616c1.883-9.7,3.32-13.119,11.637-14.978,2.46-.55,21.575,5.451,26.265,4.882,6.039-.732,10.744-11.73,11.988-3.337,0,0,3.416-5.777-.822-20.156-3.511-11.913-56.2-28.749-62.746,16.878C540.084,1252.553,550.884,1263.524,554.224,1275.712Z" transform="translate(-489.64 -1199.37)" fill="#111b33"/>
          <path id="Trazado_57" data-name="Trazado 57" d="M563.083,1246.835c0,6.268.289,12.516-4.6,12.516s-11.057-7.879-11.057-14.148,1.91-9.719,6.8-9.719S563.083,1240.565,563.083,1246.835Z" transform="translate(-489.103 -1195.196)" fill="#fcae6e"/>
          <path id="Trazado_58" data-name="Trazado 58" d="M604.616,1452.213q-.244,0-.485-.009c-11.873-.329-13.871-15.018-2.223-17.343,4.831-.964,9.782-1.491,13.8-3.242l6.188-9.481c1.342-2.058,8.319-8.826,10.338-7.428,1.638,1.135-3.359,8.893-4.049,10.761,0,0-5.251,8.842,1.311,5.674,5.674-2.739,19.9-26.376,19.12-8.848C647.738,1441.939,620.916,1452.371,604.616,1452.213Z" transform="translate(-483.706 -1174.507)" fill="#fcae6e"/>
          <path id="Trazado_59" data-name="Trazado 59" d="M495.445,1342.183s4.871,79.9,6.487,87.645,27.374,48.117,113.336,33.975c0,0,2.951-15.406,1.5-25.621-16.856-1.02-68.726-.914-80.34-18.819-3.948-6.085-5.216-42.891-5.216-42.891a31,31,0,0,0-35.764-34.289Z" transform="translate(-495.11 -1182.914)" fill="#9ebbdb"/>
        </g>
        <path id="Trazado_60" data-name="Trazado 60" d="M566.4,1675.449s.311,15.619,0,19.678,37.2,27.428,54.066,30.241c9.277,1.546,15.05-1.961,18.368-5.794a8.009,8.009,0,0,0-1.239-11.391,211.163,211.163,0,0,1-34.042-34.5Z" transform="translate(-486.911 -1144.559)" fill="#111b33"/>
        <path id="Trazado_61" data-name="Trazado 61" d="M521.366,1703.495s-3.807,19.576-3.091,24.262,3.716,34.671,29.331,33.423,8.745-32.175,7.184-36.234-5-21.451-5-21.451Z" transform="translate(-492.482 -1141.114)" fill="#111b33"/>
        <path id="Trazado_62" data-name="Trazado 62" d="M587.356,1270.459a5.978,5.978,0,0,1,1.734-6.123c1.5-1.465,4.385-2.276,5.325-.4s-1.368,6.015-2.657,6.861S587.573,1271.61,587.356,1270.459Z" transform="translate(-484.513 -1192.035)" fill="#fcae6e"/>
        <g id="Grupo_29" data-name="Grupo 29" transform="translate(144.476 201.097)">
          <path id="Trazado_63" data-name="Trazado 63" d="M629.8,1427.206l23.646-2.462,35.123-39.462-23.646,2.462Z" transform="translate(-624.06 -1378.983)" fill="#073669"/>
          <path id="Trazado_64" data-name="Trazado 64" d="M630.394,1427.6l-5.739-6.3,35.123-39.462,5.739,6.3Z" transform="translate(-624.655 -1379.38)" fill="#1b2851"/>
          <path id="Trazado_65" data-name="Trazado 65" d="M685.524,1385.935l-5.738-6.3-23.646,2.462,5.739,6.3Z" transform="translate(-621.017 -1379.635)" fill="#1b2851"/>
        </g>
        <path id="Trazado_66" data-name="Trazado 66" d="M679.474,1393.3c-3.18,3.574-6.982,4.248-13.558,5.08-6.876.87-13.621.805-14.739,3.774-1.266,3.367,5.545,3.339,5.545,3.339s10.725-.038,10.2.94-10.055,2.225-13.34,2.377c-5.949.274-8.468.1-8.737,2.924-.4,4.227,15.911,1.314,15.622,2.919s-13.094,3-14.146,3.724-.113,2.176,4.719,2.982c4.677.78,15.7.432,20.714-2.782,10.925-7,17.187-19.386,15.076-25.277l-2.112-5.891Z" transform="translate(-477.846 -1177.64)" fill="#fcae6e"/>
        <path id="Trazado_67" data-name="Trazado 67" d="M564.983,1261.715h0c-2.862-9.76-7.987-25.419,0-33.259h-8.174v25.087A8.173,8.173,0,0,0,564.983,1261.715Z" transform="translate(-488.019 -1196.008)" fill="#111b33"/>
      </g>
      <g id="Grupo_31" data-name="Grupo 31" transform="translate(856.268 760.419)">
        <path id="Trazado_68" data-name="Trazado 68" d="M1097.64,1161.835s-1.061-9.792-1.885-13.007-2.627-15.919-5.994-20.1-3.379,6.121-4.309,9.014-5.4,4.506-8.777.284-6.759-15.418-9.818-20.851-17.474,13.332-15.667,23.409,5.9,17.719,13.44,24.329c7.27,6.379,16.086,7.991,18.883,11.187Z" transform="translate(-1051.033 -1080.139)" fill="#fcae6e"/>
        <path id="Trazado_69" data-name="Trazado 69" d="M1270.771,1595.148s1.336,3.983-15.838,4.92-35.428.936-37.773,12.175,13.487,24.412,32.218,26.985c16.132,2.213,43.989.543,59.721-2.58,2.626-.524,4.886-1.742,5.24-4.4a58.859,58.859,0,0,0-2.24-25.982C1307.077,1591.113,1270.771,1595.148,1270.771,1595.148Z" transform="translate(-1031.862 -1024.85)" fill="#111b33"/>
        <path id="Trazado_70" data-name="Trazado 70" d="M1228.69,1606.538s1.335,3.976-15.838,4.913-35.435.936-37.773,12.177,11,20.134,29.729,22.707c16.14,2.221,48.43,3.74,61.261,4.271a5,5,0,0,0,5.246-4.4,129.883,129.883,0,0,0,.917-25.852C1271.067,1604.429,1228.69,1606.538,1228.69,1606.538Z" transform="translate(-1036.729 -1023.488)" fill="#111b33"/>
        <path id="Trazado_71" data-name="Trazado 71" d="M1305.051,1357.092s1.861,138.05,3.1,154.844,4.979,118.564,4.979,118.564-28.846,14.527-51.233,4.572l-12.818-262.434Z" transform="translate(-1028.147 -1052.303)" fill="#033f75"/>
        <path id="Trazado_72" data-name="Trazado 72" d="M1269.436,1365.475v138.259c1.244,40.419,3.524,146.454,3.524,146.454-32.953,3.727-53.893-14.207-53.893-14.207,1.867-18.032,0-120.018,0-120.018-6.752-52.915-10.794-137.939-11.494-153.572-.079-1.635-.113-2.51-.113-2.51Z" transform="translate(-1032.957 -1051.981)" fill="#073669"/>
        <path id="Trazado_73" data-name="Trazado 73" d="M1319.151,1182.335s21.143,65.812,16.578,100.635c0,0-16.99,14.511-36.476,23.632Z" transform="translate(-1022.349 -1072.498)" fill="#9ebbdb"/>
        <path id="Trazado_74" data-name="Trazado 74" d="M1214.037,1132.566c.066,25.329,16.775,45.816,37.321,45.763s37.15-20.631,37.091-45.96-16.78-45.816-37.326-45.764S1213.966,1107.238,1214.037,1132.566Z" transform="translate(-1032.197 -1083.56)" fill="#fcae6e"/>
        <path id="Trazado_75" data-name="Trazado 75" d="M1280.551,1159.608s-26.848-1.833-47.919,12.894a16.071,16.071,0,0,1-5.771,7.238c-4.211,2.81-35.382,14.662-35.382,14.662s19.487,131.418,8.914,191.116c0,0,45.4,35.444,116.286,0,0,0,10.361-162.821,14.926-200.548C1331.605,1184.97,1319.79,1170.358,1280.551,1159.608Z" transform="translate(-1034.803 -1075.132)" fill="#c7daf2"/>
        <path id="Trazado_76" data-name="Trazado 76" d="M1205.295,1195.5l-52.948,12.173-56.558-57.658s-19.853,6.13-23.867,23.12l67.463,76.764,82.959-7.241S1242.191,1201.308,1205.295,1195.5Z" transform="translate(-1048.619 -1076.232)" fill="#9ebbdb"/>
        <path id="Trazado_77" data-name="Trazado 77" d="M1238.536,1084.862s-40.607,8.313-29.344,29.965c6.574,12.637,45.447,16.872,45.447,16.872s-20.59,11.3-5.388,16.549c0,0,2.417,20.029,29.985,18.283,0,0,41.473-54.023-9.19-79.61A67.061,67.061,0,0,0,1238.536,1084.862Z" transform="translate(-1032.985 -1083.875)" fill="#111b33"/>
      </g>
      <g id="Grupo_32" data-name="Grupo 32" transform="translate(452.903 90.039)">
        <path id="Trazado_78" data-name="Trazado 78" d="M734.184,500.222c2.065,15.111-6.237,33.12-18.527,40.211-12.227,7.069-23.793.518-25.911-14.55-1.979-15.048,6.247-33.013,18.485-40.061C720.509,478.71,732.14,485.218,734.184,500.222Zm-19.857,30.483c7.987-4.606,13.274-16.106,12.02-25.943-1.394-9.685-8.821-13.815-16.809-9.318-7.838,4.627-13.209,16.15-11.88,25.879,1.329,9.815,8.821,13.922,16.669,9.383" transform="translate(-689.452 -482.938)" fill="#073669"/>
      </g>
      <g id="Grupo_34" data-name="Grupo 34" transform="translate(84.87 414.582)">
        <g id="Grupo_33" data-name="Grupo 33">
          <path id="Trazado_79" data-name="Trazado 79" d="M404.275,791.146c2.064,15.111-6.238,33.12-18.528,40.213-12.225,7.068-23.792.518-25.91-14.55-1.979-15.048,6.247-33.013,18.484-40.061C390.6,769.635,402.231,776.142,404.275,791.146ZM384.418,821.63c7.987-4.606,13.274-16.106,12.02-25.943-1.4-9.686-8.822-13.815-16.81-9.318-7.837,4.626-13.208,16.15-11.88,25.879,1.33,9.815,8.822,13.922,16.67,9.383" transform="translate(-359.543 -773.863)" fill="#073669"/>
        </g>
      </g>
      <g id="Grupo_35" data-name="Grupo 35" transform="translate(231.077 264.033)">
        <path id="Trazado_80" data-name="Trazado 80" d="M520.437,672.089a16.67,16.67,0,0,0-6.278,6.714,64.106,64.106,0,0,1-3.533,6.321,10.788,10.788,0,0,1-3.431,3.067c-2.361,1.333-3.733,1.208-5.207.737-1.451-.494-2.917-1.545-5.075-1.726a8.893,8.893,0,0,0-5.114,1.42,2.767,2.767,0,0,0-1.176,2.549c.133.981.882,1.4,1.654.948,2.384-1.349,3.734-1.2,5.207-.729,1.448.486,2.922,1.537,5.075,1.726a8.685,8.685,0,0,0,4.964-1.342,16.955,16.955,0,0,0,6.428-6.8,62.524,62.524,0,0,1,3.51-6.306,10.979,10.979,0,0,1,3.45-3.082c2.365-1.333,3.709-1.184,5.184-.713,1.451.486,2.918,1.537,5.051,1.74a8.733,8.733,0,0,0,4.964-1.341,16.927,16.927,0,0,0,6.423-6.8,69.576,69.576,0,0,1,3.51-6.314,11.132,11.132,0,0,1,3.455-3.082c2.337-1.31,3.71-1.184,5.161-.7,1.475.471,2.941,1.53,5.075,1.726a8.6,8.6,0,0,0,4.96-1.342,16.814,16.814,0,0,0,6.428-6.8,68.285,68.285,0,0,1,3.51-6.306,11.015,11.015,0,0,1,3.431-3.067A2.759,2.759,0,0,0,579.254,640a1.066,1.066,0,0,0-1.67-.9,16.58,16.58,0,0,0-6.25,6.706,63.32,63.32,0,0,1-3.537,6.322,10.861,10.861,0,0,1-3.427,3.067c-2.361,1.324-3.71,1.184-5.184.713-1.448-.486-2.918-1.545-5.075-1.726a8.885,8.885,0,0,0-5.09,1.412,16.6,16.6,0,0,0-6.274,6.714,63.3,63.3,0,0,1-3.537,6.322,10.753,10.753,0,0,1-3.427,3.066c-2.36,1.334-3.71,1.193-5.184.714-1.447-.486-2.917-1.537-5.075-1.725A8.917,8.917,0,0,0,520.437,672.089Z" transform="translate(-490.604 -638.909)" fill="#073669"/>
      </g>
      <g id="Grupo_37" data-name="Grupo 37" transform="translate(641.766)">
        <g id="Grupo_36" data-name="Grupo 36">
          <path id="Trazado_81" data-name="Trazado 81" d="M927.9,479.135c-7.126,4.109-11.5,9.981-14.554,15.562-3.145,5.6-5.216,10.652-8.189,14.652a25.021,25.021,0,0,1-7.954,7.108c-5.472,3.09-8.653,2.8-12.07,1.709-3.363-1.146-6.762-3.582-11.761-4-3.236-.273-7.218.618-11.853,3.29a6.415,6.415,0,0,0-2.728,5.908c.309,2.272,2.045,3.236,3.836,2.2,5.525-3.127,8.653-2.782,12.07-1.691,3.354,1.128,6.771,3.563,11.761,4,3.218.22,7.027-.526,11.508-3.108A39.307,39.307,0,0,0,912.868,509c3.081-5.563,5.207-10.654,8.135-14.616a25.394,25.394,0,0,1,8-7.145c5.48-3.09,8.6-2.744,12.016-1.653,3.363,1.126,6.762,3.562,11.708,4.034,3.208.2,7.026-.527,11.507-3.107a39.244,39.244,0,0,0,14.888-15.762c3.155-5.6,5.219-10.654,8.136-14.635a25.784,25.784,0,0,1,8.007-7.144c5.417-3.035,8.6-2.745,11.962-1.619,3.417,1.091,6.817,3.545,11.761,4,3.209.219,7.027-.51,11.5-3.109a39,39,0,0,0,14.9-15.761c3.144-5.6,5.216-10.636,8.135-14.616a25.493,25.493,0,0,1,7.954-7.108,6.405,6.405,0,0,0,2.762-6.017c-.29-2.182-2.036-3.146-3.872-2.091-7.07,4.072-11.452,9.962-14.488,15.543-3.146,5.6-5.219,10.652-8.2,14.652a25.146,25.146,0,0,1-7.945,7.108c-5.472,3.072-8.6,2.745-12.016,1.654-3.354-1.128-6.763-3.581-11.762-4-3.235-.254-7.217.618-11.8,3.272a38.471,38.471,0,0,0-14.544,15.562c-3.145,5.6-5.219,10.652-8.2,14.652a24.931,24.931,0,0,1-7.944,7.108c-5.472,3.09-8.6,2.763-12.017,1.654-3.354-1.128-6.762-3.563-11.761-4C936.454,475.608,932.474,476.5,927.9,479.135Z" transform="translate(-858.751 -402.226)" fill="#073669"/>
        </g>
      </g>
    </g>
  </g>
</svg>
