<svg xmlns="http://www.w3.org/2000/svg" width="931.287" height="442.019" viewBox="0 0 931.287 442.019">
  <g id="Grupo_75" data-name="Grupo 75" transform="translate(0)">
    <g id="Grupo_73" data-name="Grupo 73" transform="translate(0 108.537)">
      <g id="Grupo_72" data-name="Grupo 72">
        <path id="Trazado_110" data-name="Trazado 110" d="M1907.341,858.319a95.107,95.107,0,0,1-28.279,18.109A88.626,88.626,0,0,1,1844.785,883a87.14,87.14,0,0,1-35.33-7.224A92.438,92.438,0,0,1,1760.9,827a88.822,88.822,0,0,1-7.24-35.6,87.146,87.146,0,0,1,7.225-35.332,97.506,97.506,0,0,1,19.691-29.216,92.315,92.315,0,0,1,28.881-19.831,87.121,87.121,0,0,1,35.33-7.225,88.337,88.337,0,0,1,35.812,7.225A96.335,96.335,0,0,1,1910,727.135l5.62,5.617,24.857-26.515-5.273-5.27a129.235,129.235,0,0,0-41.108-27.661,125.667,125.667,0,0,0-49.313-9.918,123.068,123.068,0,0,0-49.379,10.187,128.688,128.688,0,0,0-40.605,27.672,133.681,133.681,0,0,0-27.355,40.764,125.355,125.355,0,0,0,.01,99.024,134.414,134.414,0,0,0,27.343,40.5,128.627,128.627,0,0,0,40.605,27.676,122.99,122.99,0,0,0,49.38,10.184,128.278,128.278,0,0,0,49.246-9.652,122.434,122.434,0,0,0,41.251-28l6.215-6.389-29.529-21.327Z" transform="translate(-1717.259 -663.388)" fill="#0093ca"/>
        <path id="Trazado_111" data-name="Trazado 111" d="M2144.035,742.441A130.391,130.391,0,0,0,2075.594,674a125.342,125.342,0,0,0-99.021.013,131.062,131.062,0,0,0-68.171,68.426,124.172,124.172,0,0,0-.014,98.489,132.876,132.876,0,0,0,68.121,69.384,109.576,109.576,0,0,0,45.379,9.594c1.436,0,2.881-.026,4.328-.078a110.513,110.513,0,0,0,49.444-9.5,132.189,132.189,0,0,0,68.389-69.4,124.18,124.18,0,0,0-.013-98.49Zm-117.817-42.226a87.153,87.153,0,0,1,35.331,7.224,97.6,97.6,0,0,1,29.217,19.693,91.644,91.644,0,0,1,19.818,29.081,91.162,91.162,0,0,1,0,71.213,91.521,91.521,0,0,1-19.819,29.083,97.452,97.452,0,0,1-29.215,19.693,87.137,87.137,0,0,1-35.331,7.225,88.792,88.792,0,0,1-35.605-7.242,91.789,91.789,0,0,1-48.759-48.761,91.137,91.137,0,0,1,0-71.208,91.8,91.8,0,0,1,48.76-48.761A88.793,88.793,0,0,1,2026.218,700.214Z" transform="translate(-1696.349 -663.339)" fill="#0093ca"/>
        <path id="Trazado_112" data-name="Trazado 112" d="M2350.761,703.1h63.18V919.731h44.287V703.1h63.179V664.2H2350.761Z" transform="translate(-1644.053 -663.294)" fill="#003c50"/>
        <rect id="Rect치ngulo_8" data-name="Rect치ngulo 8" width="43.708" height="255.531" transform="translate(886.641 0.906)" fill="#003c50"/>
        <g id="Grupo_52" data-name="Grupo 52" transform="translate(5.984 288.772)">
          <path id="Trazado_113" data-name="Trazado 113" d="M1724.1,965.92a.6.6,0,0,1-.63-.63V923.717a.594.594,0,0,1,.63-.628h15.81c9.889.818,17.322,10.455,16.314,21.415,1.008,10.96-6.425,20.6-16.314,21.415H1724.1Zm.629-1.259h15.118c9.2-.82,16-9.827,15.117-20.095v-.125c.881-10.268-5.921-19.275-15.117-20.092h-15.118Z" transform="translate(-1722.526 -922.15)" fill="#004b71"/>
          <path id="Trazado_114" data-name="Trazado 114" d="M1740.041,966.956h-15.849a1.535,1.535,0,0,1-1.57-1.57V923.814a1.534,1.534,0,0,1,1.57-1.567l15.887,0a18.039,18.039,0,0,1,12.34,6.557,28.191,28.191,0,0,1,0,31.59,18.039,18.039,0,0,1-12.34,6.556Zm-14.28-3.138h14.178c8.62-.772,15.019-9.332,14.182-19.074l0-.206c.84-9.825-5.559-18.383-14.261-19.157l-14.1,0Z" transform="translate(-1722.623 -922.247)" fill="#004b71"/>
        </g>
        <g id="Grupo_53" data-name="Grupo 53" transform="translate(49.575 288.772)">
          <path id="Trazado_115" data-name="Trazado 115" d="M1792.144,923.089h.631v1.26H1763.8v19.526h21.227v1.258H1763.8V964.66h28.976v1.259h-29.6a.6.6,0,0,1-.63-.63V923.717a.594.594,0,0,1,.63-.628Z" transform="translate(-1761.602 -922.15)" fill="#004b71"/>
          <path id="Trazado_116" data-name="Trazado 116" d="M1793.812,966.956h-30.544a1.534,1.534,0,0,1-1.568-1.57V923.814a1.533,1.533,0,0,1,1.568-1.567h30.544v3.138h-28.975v17.647h21.227v3.137h-21.227v17.649h28.975Z" transform="translate(-1761.699 -922.247)" fill="#004b71"/>
        </g>
        <g id="Grupo_54" data-name="Grupo 54" transform="translate(113.448 288.772)">
          <path id="Trazado_117" data-name="Trazado 117" d="M1836.867,923.089h15.685v1.26h-15.685V965.92h-1.26V924.349H1819.8v-1.26h17.07Z" transform="translate(-1818.858 -922.15)" fill="#004b71"/>
          <path id="Trazado_118" data-name="Trazado 118" d="M1837.9,966.956h-3.138V925.385h-15.81v-3.138h34.633v3.138H1837.9Z" transform="translate(-1818.955 -922.247)" fill="#004b71"/>
        </g>
        <g id="Grupo_55" data-name="Grupo 55" transform="translate(153.26 288.835)">
          <path id="Trazado_119" data-name="Trazado 119" d="M1855.484,923.711v-.567h1.387l-.064.631-.063,28.531c0,6.8,6.173,12.347,13.859,12.347s13.857-5.544,13.857-12.347V923.144h1.384l-.062.631-.062,28.531c0,7.434-6.677,13.606-15.117,13.606s-15.118-6.172-15.118-13.606Z" transform="translate(-1854.546 -922.206)" fill="#004b71"/>
          <path id="Trazado_120" data-name="Trazado 120" d="M1870.7,966.95c-8.854,0-16.056-6.526-16.056-14.546V922.3h3.362l-.166,1.662-.059,28.44c0,6.29,5.8,11.407,12.919,11.407s12.918-5.117,12.918-11.408V922.3h3.361l-.165,1.662-.058,28.44C1886.755,960.424,1879.552,966.95,1870.7,966.95Z" transform="translate(-1854.643 -922.303)" fill="#004b71"/>
        </g>
        <g id="Grupo_56" data-name="Grupo 56" transform="translate(223.433 288.811)">
          <path id="Trazado_121" data-name="Trazado 121" d="M1919.648,965.285v.63h-1.26v-42.2a.637.637,0,0,1,1.2-.251l18.329,40.312,18.267-40.312a.637.637,0,0,1,1.2.251l.063,41.572v.63h-1.26v-.63l-.064-38.674-17.637,38.927a.651.651,0,0,1-1.134,0l-17.7-38.927Z" transform="translate(-1917.45 -922.184)" fill="#004b71"/>
          <path id="Trazado_122" data-name="Trazado 122" d="M1958.478,966.952h-3.138v-1.57l-.056-34.341-15.85,34.983a1.529,1.529,0,0,1-1.421.882h0a1.534,1.534,0,0,1-1.43-.9l-15.9-34.962v35.909h-3.138V923.81a1.575,1.575,0,0,1,2.994-.634l17.47,38.422,17.414-38.428a1.574,1.574,0,0,1,2.991.639Z" transform="translate(-1917.547 -922.282)" fill="#004b71"/>
        </g>
        <g id="Grupo_57" data-name="Grupo 57" transform="translate(275.841 288.772)">
          <path id="Trazado_123" data-name="Trazado 123" d="M1994.974,923.089h.628v1.26h-28.973v19.526h21.226v1.258h-21.226V964.66H1995.6v1.259H1966a.6.6,0,0,1-.63-.63V923.717a.594.594,0,0,1,.63-.628Z" transform="translate(-1964.429 -922.15)" fill="#004b71"/>
          <path id="Trazado_124" data-name="Trazado 124" d="M1996.639,966.956H1966.1a1.535,1.535,0,0,1-1.57-1.57V923.814a1.534,1.534,0,0,1,1.57-1.567h30.543v3.138h-28.972v17.647h21.225v3.137h-21.225v17.649h28.972Z" transform="translate(-1964.526 -922.247)" fill="#004b71"/>
        </g>
        <g id="Grupo_58" data-name="Grupo 58" transform="translate(316.913 288.772)">
          <path id="Trazado_125" data-name="Trazado 125" d="M2003.445,965.289v.63h-1.259v-42.2a.649.649,0,0,1,1.134-.377l29.039,40,.061-39.62v-.628h1.26v.628l-.061,41.572a.649.649,0,0,1-1.135.378l-29.038-40Z" transform="translate(-2001.247 -922.15)" fill="#004b71"/>
          <path id="Trazado_126" data-name="Trazado 126" d="M2004.482,966.956h-3.138V923.814a1.586,1.586,0,0,1,2.839-.922l27.338,37.656.057-38.3h3.138v1.567l-.062,41.575a1.586,1.586,0,0,1-2.837.924l-27.334-37.652Z" transform="translate(-2001.344 -922.247)" fill="#004b71"/>
        </g>
        <g id="Grupo_59" data-name="Grupo 59" transform="translate(356.724 288.772)">
          <path id="Trazado_127" data-name="Trazado 127" d="M2054.944,923.089h15.684v1.26h-15.684V965.92h-1.262V924.349h-15.809v-1.26h17.071Z" transform="translate(-2036.934 -922.15)" fill="#004b71"/>
          <path id="Trazado_128" data-name="Trazado 128" d="M2055.981,966.956h-3.14V925.385h-15.81v-3.138h34.633v3.138h-15.684Z" transform="translate(-2037.031 -922.247)" fill="#004b71"/>
        </g>
        <g id="Grupo_60" data-name="Grupo 60" transform="translate(397.795 288.772)">
          <path id="Trazado_129" data-name="Trazado 129" d="M2104.295,923.089h.629v1.26h-28.973v19.526h21.226v1.258h-21.226V964.66h28.973v1.259h-29.6a.6.6,0,0,1-.631-.63V923.717a.6.6,0,0,1,.631-.628Z" transform="translate(-2073.751 -922.15)" fill="#004b71"/>
          <path id="Trazado_130" data-name="Trazado 130" d="M2105.961,966.956h-30.543a1.535,1.535,0,0,1-1.57-1.57V923.814a1.534,1.534,0,0,1,1.57-1.567h30.543v3.138h-28.973v17.647h21.226v3.137h-21.226v17.649h28.973Z" transform="translate(-2073.848 -922.247)" fill="#004b71"/>
        </g>
        <g id="Grupo_61" data-name="Grupo 61" transform="translate(460.865 288.818)">
          <path id="Trazado_131" data-name="Trazado 131" d="M2133.176,965.538l-.125.377h-1.388l.379-.882,18.266-41.571a.652.652,0,0,1,1.135,0l18.266,41.571.379.882H2168.7l-.125-.377-17.7-40.25Z" transform="translate(-2130.236 -922.191)" fill="#004b71"/>
          <path id="Trazado_132" data-name="Trazado 132" d="M2171.663,966.952h-3.49l-.339-1.02-16.811-38.213L2134.2,965.973l-.327.978h-3.49l.944-2.192L2149.6,923.18a1.534,1.534,0,0,1,1.427-.892h0a1.535,1.535,0,0,1,1.429.9Z" transform="translate(-2130.384 -922.288)" fill="#004b71"/>
        </g>
        <g id="Grupo_62" data-name="Grupo 62" transform="translate(535.622 288.772)">
          <path id="Trazado_133" data-name="Trazado 133" d="M2198.239,923.717v-.628h1.258V964.66h23.937v1.259h-24.565a.6.6,0,0,1-.63-.63Z" transform="translate(-2197.3 -922.15)" fill="#004b71"/>
          <path id="Trazado_134" data-name="Trazado 134" d="M2224.47,966.956h-25.5a1.535,1.535,0,0,1-1.57-1.57v-43.14h3.138v41.571h23.935Z" transform="translate(-2197.397 -922.247)" fill="#004b71"/>
        </g>
        <g id="Grupo_63" data-name="Grupo 63" transform="translate(563.291 288.818)">
          <path id="Trazado_135" data-name="Trazado 135" d="M2224.992,965.538l-.126.377h-1.387l.379-.882,18.266-41.571a.651.651,0,0,1,1.133,0l18.266,41.571.379.882h-1.388l-.125-.377-17.7-40.25Z" transform="translate(-2222.052 -922.191)" fill="#004b71"/>
          <path id="Trazado_136" data-name="Trazado 136" d="M2263.477,966.952h-3.49l-.339-1.02-16.81-38.213-16.822,38.255-.326.978H2222.2l.943-2.192,18.27-41.579a1.531,1.531,0,0,1,1.426-.892h0a1.533,1.533,0,0,1,1.428.9Z" transform="translate(-2222.2 -922.288)" fill="#004b71"/>
        </g>
        <g id="Grupo_64" data-name="Grupo 64" transform="translate(638.046 288.772)">
          <path id="Trazado_137" data-name="Trazado 137" d="M2310.832,945.025c3.754,2.834,6.512,6.564,10.715,20.076l.253.819h-1.323l-.189-.441c-4.408-14.469-7.164-17.428-11.465-20.347h-17.51V965.92h-1.26v-.63l.031-20.216-.031,0,.031-.6.032-20.688a.6.6,0,0,1,.629-.631l18.267-.061c6.927,0,12.533,4.975,12.533,11.084C2321.547,939.7,2316.873,944.272,2310.832,945.025Zm-3.885-1.143-.012-.008h2.142c6.111,0,11.211-4.283,11.211-9.7,0-5.479-5.1-9.825-11.274-9.825h-17.7v19.587Z" transform="translate(-2289.115 -922.15)" fill="#004b71"/>
          <path id="Trazado_138" data-name="Trazado 138" d="M2323.172,966.956h-3.215l-.47-1.108c-4.323-14.188-7.024-17.042-10.856-19.68H2292.35v20.787h-3.138l.064-43.079a1.534,1.534,0,0,1,1.569-1.567l18.265-.062c7.43,0,13.475,5.394,13.475,12.024,0,5.283-3.978,9.9-9.533,11.392,3.255,2.994,5.855,7.568,9.491,19.257Zm-30.822-41.571V943.09l11.7-.04-.027-.018h5.148c5.664,0,10.272-3.931,10.272-8.762,0-4.9-4.635-8.885-10.334-8.885Z" transform="translate(-2289.212 -922.247)" fill="#004b71"/>
        </g>
        <g id="Grupo_65" data-name="Grupo 65" transform="translate(680.376 288.772)">
          <path id="Trazado_139" data-name="Trazado 139" d="M2357.6,923.089h.628v1.26H2329.26v19.526h21.227v1.258H2329.26V964.66h28.973v1.259h-29.6a.6.6,0,0,1-.63-.63V923.717a.594.594,0,0,1,.63-.628Z" transform="translate(-2327.06 -922.15)" fill="#004b71"/>
          <path id="Trazado_140" data-name="Trazado 140" d="M2359.27,966.956h-30.543a1.535,1.535,0,0,1-1.57-1.57V923.814a1.534,1.534,0,0,1,1.57-1.567h30.543v3.138H2330.3v17.647h21.227v3.137H2330.3v17.649h28.973Z" transform="translate(-2327.157 -922.247)" fill="#004b71"/>
        </g>
        <g id="Grupo_66" data-name="Grupo 66" transform="translate(715.606 288.818)">
          <path id="Trazado_141" data-name="Trazado 141" d="M2361.528,965.538l-.125.377h-1.388l.379-.882,18.266-41.571a.651.651,0,0,1,1.134,0l18.267,41.571.378.882h-1.386l-.126-.377-17.7-40.25Z" transform="translate(-2358.589 -922.191)" fill="#004b71"/>
          <path id="Trazado_142" data-name="Trazado 142" d="M2400.015,966.952h-3.49l-.34-1.02-16.809-38.213-16.822,38.255-.326.978h-3.49l.943-2.192,18.268-41.579a1.587,1.587,0,0,1,2.857.007Z" transform="translate(-2358.737 -922.288)" fill="#004b71"/>
        </g>
        <g id="Grupo_67" data-name="Grupo 67" transform="translate(762.517 288.772)">
          <path id="Trazado_143" data-name="Trazado 143" d="M2401.631,923.717v-.628h1.261V964.66h23.935v1.259h-24.565a.6.6,0,0,1-.631-.63Z" transform="translate(-2400.692 -922.15)" fill="#004b71"/>
          <path id="Trazado_144" data-name="Trazado 144" d="M2427.864,966.956h-25.5a1.536,1.536,0,0,1-1.571-1.57v-43.14h3.14v41.571h23.935Z" transform="translate(-2400.789 -922.247)" fill="#004b71"/>
        </g>
        <g id="Grupo_68" data-name="Grupo 68" transform="translate(796.721 288.772)">
          <path id="Trazado_145" data-name="Trazado 145" d="M2432.292,923.717v-.628h1.261V965.92h-1.261v-42.2Z" transform="translate(-2431.353 -922.15)" fill="#004b71"/>
          <rect id="Rect치ngulo_9" data-name="Rect치ngulo 9" width="3.14" height="44.709" fill="#004b71"/>
        </g>
        <g id="Grupo_69" data-name="Grupo 69" transform="translate(811.902 288.772)">
          <path id="Trazado_146" data-name="Trazado 146" d="M2446.532,965.92a.6.6,0,0,1-.632-.63V923.717a.6.6,0,0,1,.632-.628h15.808c9.89.818,17.323,10.455,16.315,21.415,1.008,10.96-6.425,20.6-16.315,21.415h-15.808Zm.63-1.259h15.115c9.2-.82,16-9.827,15.119-20.095v-.125c.88-10.268-5.921-19.275-15.119-20.092h-15.115Z" transform="translate(-2444.961 -922.15)" fill="#004b71"/>
          <path id="Trazado_147" data-name="Trazado 147" d="M2462.477,966.956h-15.848a1.536,1.536,0,0,1-1.571-1.57V923.814a1.535,1.535,0,0,1,1.571-1.567l15.886,0a18.04,18.04,0,0,1,12.339,6.557,28.2,28.2,0,0,1,0,31.59,18.042,18.042,0,0,1-12.34,6.556Zm-14.278-3.138h14.175c8.619-.772,15.019-9.331,14.183-19.075l0-.205c.839-9.825-5.56-18.383-14.264-19.157l-14.092,0Z" transform="translate(-2445.058 -922.247)" fill="#004b71"/>
        </g>
        <g id="Grupo_70" data-name="Grupo 70" transform="translate(849.652 288.818)">
          <path id="Trazado_148" data-name="Trazado 148" d="M2481.689,965.538l-.125.377h-1.388l.379-.882,18.266-41.571a.651.651,0,0,1,1.134,0l18.266,41.571.379.882h-1.387l-.126-.377-17.7-40.25Z" transform="translate(-2478.75 -922.191)" fill="#004b71"/>
          <path id="Trazado_149" data-name="Trazado 149" d="M2520.175,966.952h-3.49l-.339-1.02-16.808-38.213-16.823,38.255-.326.978h-3.49l.942-2.192,18.271-41.579a1.585,1.585,0,0,1,2.856.008Z" transform="translate(-2478.898 -922.288)" fill="#004b71"/>
        </g>
        <g id="Grupo_71" data-name="Grupo 71" transform="translate(896.565 288.772)">
          <path id="Trazado_150" data-name="Trazado 150" d="M2522.422,965.92a.6.6,0,0,1-.63-.63V923.717a.6.6,0,0,1,.63-.628h15.81c9.889.818,17.322,10.455,16.315,21.415,1.007,10.96-6.426,20.6-16.315,21.415h-15.81Zm.629-1.259h15.119c9.2-.82,16-9.827,15.115-20.095v-.125c.882-10.268-5.919-19.275-15.115-20.092h-15.119Z" transform="translate(-2520.854 -922.15)" fill="#004b71"/>
          <path id="Trazado_151" data-name="Trazado 151" d="M2538.368,966.956H2522.52a1.535,1.535,0,0,1-1.569-1.57V923.814a1.534,1.534,0,0,1,1.569-1.567l15.886,0a18.042,18.042,0,0,1,12.342,6.557,28.2,28.2,0,0,1,0,31.59,18.042,18.042,0,0,1-12.342,6.556Zm-14.28-3.138h14.18c8.618-.772,15.016-9.331,14.179-19.074l0-.206c.841-9.825-5.557-18.383-14.259-19.157l-14.1,0Z" transform="translate(-2520.951 -922.247)" fill="#004b71"/>
        </g>
        <path id="Trazado_152" data-name="Trazado 152" d="M2112.749,670.667l1.222-6.209h36.682l-1.794,9.173a32.282,32.282,0,0,0-.334,5.685,89.411,89.411,0,0,0,6.8,34.741,92.6,92.6,0,0,0,18.732,28.664,93.553,93.553,0,0,0,28.024,19.849,85.677,85.677,0,0,0,34.318,7.872h7.461c15.32-.346,32.586,3.633,48.637,11.2a123.008,123.008,0,0,1,31.224,19.821,128.785,128.785,0,0,1,23.865,27.674,132.1,132.1,0,0,1,15.208,33.2,125.553,125.553,0,0,1,5.338,36.107c0,2.169-.088,4.381-.26,6.544-.171,2.279-.441,4.521-.8,6.664l-1.053,6.277-36.46.827,1.3-9c.3-2.052.519-3.98.665-5.77.14-1.637.211-3.449.211-5.543a89.316,89.316,0,0,0-6.8-34.742,95.586,95.586,0,0,0-18.778-28.951,88.248,88.248,0,0,0-27.9-19.765,94.8,94.8,0,0,0-34.494-8.148h-7.452l-2.488-.2c-18.957-1.725-25.342-2.3-46.261-10.881l-.19-.081a119.143,119.143,0,0,1-31.128-19.907,135.229,135.229,0,0,1-23.542-27.339,128.1,128.1,0,0,1-15.239-33.015,125.554,125.554,0,0,1-5.337-36.107A46.584,46.584,0,0,1,2112.749,670.667Z" transform="translate(-1671.629 -663.264)" fill="#003c50"/>
        <path id="Trazado_153" data-name="Trazado 153" d="M2367.514,670.667l-1.223-6.209h-36.682l1.793,9.173a32.085,32.085,0,0,1,.335,5.685,89.389,89.389,0,0,1-6.8,34.741,92.588,92.588,0,0,1-18.731,28.664,93.55,93.55,0,0,1-28.024,19.849,85.682,85.682,0,0,1-34.319,7.872h-7.46c-15.32-.346-32.588,3.633-48.638,11.2a123,123,0,0,0-31.223,19.821,128.8,128.8,0,0,0-23.866,27.674,132.172,132.172,0,0,0-15.208,33.2,125.594,125.594,0,0,0-5.337,36.107c0,2.169.088,4.381.259,6.544.172,2.279.442,4.521.8,6.664l1.052,6.277,36.461.827-1.3-9c-.3-2.052-.519-3.98-.665-5.77-.142-1.637-.211-3.449-.211-5.543a89.32,89.32,0,0,1,6.8-34.742,95.546,95.546,0,0,1,18.778-28.951,88.235,88.235,0,0,1,27.9-19.765,94.8,94.8,0,0,1,34.494-8.148h7.452l2.488-.2c18.956-1.725,25.342-2.3,46.261-10.881l.188-.081a119.133,119.133,0,0,0,31.129-19.907,135.212,135.212,0,0,0,23.543-27.339,128.054,128.054,0,0,0,15.237-33.015,125.547,125.547,0,0,0,5.338-36.107A46.609,46.609,0,0,0,2367.514,670.667Z" transform="translate(-1671.629 -663.264)" fill="#0093ca"/>
      </g>
    </g>
    <g id="Grupo_74" data-name="Grupo 74" transform="translate(440.498)">
      <path id="Trazado_154" data-name="Trazado 154" d="M2160.9,596.89h-2.756c0-8.129-9.508-14.329-20.393-14.329s-20.393,6.2-20.393,14.329c0,15.708,46.159,13.5,46.022,31.967,0,9.232-10.886,17.086-25.63,17.086s-25.628-7.854-25.628-17.086h2.755c0,8.13,10.61,14.33,22.873,14.33s22.873-6.2,22.873-14.33c0-15.707-45.884-13.227-46.021-31.967,0-9.231,10.059-17.085,23.148-17.085S2160.9,587.659,2160.9,596.89Z" transform="translate(-2112.127 -564.51)"/>
      <path id="Trazado_155" data-name="Trazado 155" d="M2222.518,630.924l2.206,1.653c-4.271,5.925-12.126,13.5-26.456,13.365-16.811,0-30.314-14.6-30.314-33.07s13.5-33.068,30.314-33.068c16.672,0,30.313,14.6,30.313,33.068v1.379h-57.844c.641,16.163,12.522,28.935,27.531,28.935C2211.5,643.326,2218.522,636.3,2222.518,630.924ZM2170.737,611.5h55.089c0-15.432-12.264-28.935-27.558-28.935C2183.26,582.56,2171.379,595.331,2170.737,611.5Z" transform="translate(-2105.676 -564.51)"/>
      <path id="Trazado_156" data-name="Trazado 156" d="M2239.875,597.8c4.927-11.678,16.05-18,30.039-18h1.378v2.755h-1.378c-17.31,0-29.9,10.517-30.039,29.684v33.7h-2.755v-33.07c0-.21,0-.419,0-.628V579.8h2.755v18Z" transform="translate(-2097.683 -564.51)"/>
      <path id="Trazado_157" data-name="Trazado 157" d="M2274.136,581.734l-.827-1.929h3.031l.276.827,25.078,60.352,24.8-60.352.275-.827h3.031l-.827,1.929-26.042,63.383-.276.827h-1.93l-.274-.827Z" transform="translate(-2093.501 -564.51)"/>
      <path id="Trazado_158" data-name="Trazado 158" d="M2340.766,568.849h-1.378v-2.755h2.894v2.755h-1.516Zm-1.378,13.918v-1.378h2.755v66.138h-2.755v-64.76Z" transform="translate(-2085.865 -566.094)"/>
      <path id="Trazado_159" data-name="Trazado 159" d="M2410.55,631.338l2.2,1.653c-3.857,5.649-11.022,12.952-24.8,12.952-16.535,0-30.038-14.6-30.038-33.07s13.5-33.068,30.038-33.068c13.78,0,21.082,6.751,24.8,12.125l-2.2,1.653c-3.445-5.1-10.2-11.023-22.6-11.023-15.157,0-27.282,13.5-27.282,30.313s12.125,30.314,27.282,30.314C2400.353,643.188,2406.967,636.436,2410.55,631.338Z" transform="translate(-2083.724 -564.51)"/>
      <path id="Trazado_160" data-name="Trazado 160" d="M2424.754,568.849h-1.378v-2.755h2.894v2.755h-1.516Zm-1.378,13.918v-1.378h2.755v66.138h-2.755v-64.76Z" transform="translate(-2076.16 -566.094)"/>
      <path id="Trazado_161" data-name="Trazado 161" d="M2441.9,612.873c0-18.464,13.779-33.068,30.314-33.068,16.672,0,30.313,14.6,30.313,33.068s-13.641,33.07-30.313,33.07C2455.681,645.943,2441.9,631.338,2441.9,612.873Zm2.756,0c0,16.81,12.4,30.314,27.558,30.314,15.294,0,27.558-13.5,27.558-30.314s-12.263-30.313-27.558-30.313C2457.059,582.56,2444.658,596.064,2444.658,612.873Z" transform="translate(-2074.019 -564.51)"/>
      <path id="Trazado_162" data-name="Trazado 162" d="M2554.9,596.89h-2.755c0-8.129-9.507-14.329-20.394-14.329s-20.393,6.2-20.393,14.329c0,15.708,46.16,13.5,46.022,31.967,0,9.232-10.885,17.086-25.63,17.086s-25.628-7.854-25.628-17.086h2.755c0,8.13,10.61,14.33,22.873,14.33s22.873-6.2,22.873-14.33c0-15.707-45.884-13.227-46.021-31.967,0-9.231,10.059-17.085,23.148-17.085S2554.9,587.659,2554.9,596.89Z" transform="translate(-2066.597 -564.51)"/>
    </g>
  </g>
</svg>
